P3
25 25 255

191 172 191
199 180 199
207 187 207
215 194 215
222 200 222
228 205 228
233 210 233
236 213 236
238 215 238
239 215 239
237 214 237
234 211 234
229 207 229
223 201 223
216 195 216
209 188 209
201 181 201
193 174 193
185 167 185
177 160 177
170 153 170
163 147 163
156 140 156
149 135 149
202 0 0
0 145 0
199 179 199
208 188 208
218 197 218
228 205 228
236 213 236
244 220 244
249 225 249
253 228 253
254 229 254
252 227 252
248 224 248
242 219 242
235 212 235
226 204 226
216 195 216
207 186 207
197 177 197
187 169 187
178 161 178
169 153 169
161 145 161
153 138 153
208 0 0
208 0 0
0 153 0
0 152 0
194 175 194
205 184 205
214 193 214
224 202 224
232 209 232
239 215 239
243 219 243
245 221 245
244 220 244
241 217 241
235 212 235
227 205 227
218 197 218
208 188 208
198 179 198
188 170 188
178 161 178
169 152 169
160 145 160
152 137 152
207 0 0
215 0 0
214 0 0
0 161 0
0 162 0
0 149 0
174 157 174
182 164 182
189 171 189
196 177 196
201 182 201
205 185 205
207 187 207
207 187 207
205 185 205
201 181 201
196 176 196
189 170 189
181 164 181
173 156 173
165 149 165
157 142 157
150 135 150
142 128 142
195 0 0
214 0 0
221 0 0
219 0 0
0 170 0
0 172 0
0 159 0
0 132 0
142 128 142
147 133 147
151 136 151
155 139 155
157 142 157
159 143 159
159 143 159
158 143 158
156 141 156
153 138 153
149 134 149
145 130 145
140 126 140
135 121 135
129 117 129
124 112 124
172 0 0
202 0 0
222 0 0
228 0 0
224 0 0
0 178 0
0 183 0
0 169 0
0 139 0
0 106 0
210 189 210
214 193 214
218 197 218
221 200 221
223 201 223
224 202 224
223 201 223
221 200 221
218 197 218
214 193 214
209 189 209
204 184 204
198 178 198
191 173 191
185 167 185
178 0 0
209 0 0
228 0 0
234 0 0
229 0 0
0 187 0
0 194 0
0 180 0
0 147 0
0 110 0
216 195 216
221 199 221
226 203 226
229 206 229
231 208 231
232 209 232
231 208 231
229 206 229
225 203 225
221 199 221
216 194 216
210 189 210
203 183 203
196 177 196
189 171 189
182 0 0
215 0 0
235 0 0
239 0 0
233 0 0
0 194 0
0 205 0
0 191 0
0 154 0
0 114 0
222 200 222
227 205 227
232 209 232
236 213 236
238 215 238
239 215 239
238 215 238
236 213 236
232 209 232
227 205 227
221 200 221
215 194 215
208 187 208
201 181 201
193 174 193
187 0 0
221 0 0
241 0 0
244 0 0
237 0 0
0 201 0
0 215 0
0 200 0
0 160 0
0 117 0
226 204 226
233 210 233
238 214 238
242 218 242
244 220 244
245 221 245
244 220 244
242 218 242
238 214 238
232 210 232
226 204 226
219 198 219
212 191 212
204 184 204
196 177 196
190 0 0
225 0 0
245 0 0
248 0 0
240 0 0
0 206 0
0 222 0
0 208 0
0 165 0
0 120 0
230 208 230
237 214 237
242 218 242
246 222 246
249 224 249
250 225 250
249 224 249
246 222 246
242 218 242
236 213 236
230 207 230
223 201 223
215 194 215
207 187 207
199 179 199
193 0 0
229 0 0
249 0 0
251 0 0
242 0 0
0 209 0
0 227 0
0 214 0
0 169 0
0 122 0
233 210 233
240 216 240
245 221 245
249 225 249
252 227 252
253 228 253
252 227 252
249 225 249
245 221 245
239 216 239
233 210 233
225 203 225
217 196 217
209 188 209
200 181 200
195 0 0
231 0 0
251 0 0
253 0 0
243 0 0
0 210 0
0 229 0
0 216 0
0 170 0
0 122 0
234 211 234
241 217 241
247 222 247
251 226 251
254 229 254
254 229 254
253 229 253
251 226 251
246 222 246
241 217 241
234 211 234
226 204 226
218 197 218
210 189 210
201 181 201
196 0 0
232 0 0
252 0 0
253 0 0
243 0 0
0 208 0
0 227 0
0 214 0
0 169 0
0 122 0
234 211 234
240 217 240
246 222 246
250 226 250
253 228 253
50 45 128
66 59 168
62 56 158
45 40 114
14 13 37
0 0 0
226 204 226
218 196 218
209 189 209
201 181 201
196 0 0
231 0 0
251 0 0
253 0 0
243 0 0
0 204 0
0 221 0
0 209 0
0 166 0
0 121 0
232 209 232
239 215 239
244 220 244
248 224 248
58 52 148
85 77 218
93 84 238
86 77 219
67 61 173
42 37 107
6 6 17
0 0 0
0 0 0
208 188 208
200 180 200
194 0 0
229 0 0
249 0 0
251 0 0
241 0 0
0 199 0
0 213 0
0 201 0
0 161 0
0 119 0
229 206 229
235 212 235
241 217 241
28 25 73
74 66 189
95 85 242
99 89 254
91 82 232
73 66 187
49 44 125
19 17 49
0 0 0
0 0 0
0 0 0
198 178 198
192 0 0
226 0 0
245 0 0
247 0 0
239 0 0
0 192 0
0 204 0
0 191 0
0 155 0
0 116 0
225 203 225
231 208 231
236 213 236
36 33 94
71 64 182
88 79 225
91 82 233
83 75 212
67 60 171
45 41 116
19 17 48
0 0 0
0 0 0
0 0 0
0 0 0
188 0 0
222 0 0
241 0 0
243 0 0
236 0 0
0 184 0
0 193 0
0 181 0
0 148 0
0 112 0
219 198 219
225 203 225
230 207 230
27 24 70
57 51 146
71 64 182
74 66 189
67 60 172
53 48 137
34 31 88
10 9 27
0 0 0
0 0 0
0 0 0
0 0 0
184 0 0
216 0 0
235 0 0
238 0 0
232 0 0
0 175 0
0 182 0
0 170 0
0 141 0
0 108 0
213 192 213
219 197 219
0 0 0
6 5 16
36 32 92
49 44 125
52 46 133
47 42 119
35 32 90
18 17 48
0 0 0
0 0 0
0 0 0
0 0 0
0 0 0
180 0 0
210 0 0
229 0 0
233 0 0
227 0 0
0 167 0
0 171 0
0 159 0
0 133 0
0 104 0
207 187 207
212 191 212
0 0 0
0 0 0
9 8 24
23 21 60
27 24 69
23 21 60
13 12 35
0 0 0
0 0 0
0 0 0
0 0 0
0 0 0
0 0 0
175 0 0
204 0 0
222 0 0
227 0 0
222 0 0
0 158 0
0 160 0
0 149 0
0 126 0
0 99 0
200 180 200
204 184 204
0 0 0
0 0 0
0 0 0
0 0 0
0 0 0
0 0 0
0 0 0
0 0 0
0 0 0
0 0 0
0 0 0
0 0 0
0 0 0
169 0 0
197 0 0
214 0 0
220 0 0
217 0 0
0 150 0
0 151 0
0 140 0
0 119 0
165 148 165
169 153 169
174 157 174
177 160 177
180 162 180
0 0 0
0 0 0
0 0 0
0 0 0
0 0 0
0 0 0
0 0 0
0 0 0
0 0 0
151 136 151
145 131 145
164 0 0
190 0 0
207 0 0
213 0 0
211 0 0
0 143 0
0 141 0
0 131 0
194 175 194
202 182 202
208 188 208
214 193 214
219 197 219
222 200 222
224 202 224
224 202 224
222 200 222
218 197 218
213 192 213
207 187 207
201 181 201
193 174 193
186 167 186
178 160 178
170 154 170
163 147 163
183 0 0
200 0 0
206 0 0
206 0 0
0 135 0
0 133 0
211 190 211
219 198 219
227 205 227
235 212 235
241 217 241
246 222 246
249 224 249
250 226 250
250 225 250
247 223 247
242 219 242
237 213 237
229 207 229
222 200 222
213 192 213
205 185 205
196 177 196
188 169 188
179 162 179
171 155 171
192 0 0
200 0 0
200 0 0
0 128 0
212 192 212
220 199 220
228 206 228
235 212 235
241 218 241
246 222 246
250 226 250
252 228 252
253 228 253
252 227 252
249 225 249
245 221 245
240 216 240
233 210 233
226 204 226
218 197 218
210 190 210
202 182 202
194 175 194
186 168 186
179 161 179
172 155 172
193 0 0
194 0 0
205 185 205
211 191 211
218 196 218
223 201 223
229 206 229
233 210 233
237 213 237
239 216 239
240 217 240
240 217 240
239 216 239
237 214 237
234 211 234
229 207 229
224 202 224
218 197 218
212 191 212
206 186 206
199 180 199
193 174 193
186 168 186
179 162 179
173 156 173
167 151 167
188 0 0
