P3
64 48 255

60 47 60
62 48 62
63 49 63
64 50 64
65 51 65
67 52 67
68 53 68
69 54 69
71 55 71
72 56 72
73 58 73
75 59 75
76 60 76
78 61 78
79 62 79
81 63 81
82 64 82
84 66 84
85 67 85
87 68 87
88 69 88
90 70 90
91 71 91
92 72 92
93 73 93
95 74 95
96 75 96
97 76 97
97 76 97
98 77 98
99 77 99
99 78 99
99 78 99
99 78 99
99 78 99
99 78 99
99 77 99
98 77 98
98 76 98
97 76 97
96 75 96
95 74 95
94 74 94
93 73 93
91 72 91
90 71 90
89 69 89
87 68 87
86 67 86
84 66 84
83 65 83
81 64 81
80 63 80
78 61 78
77 60 77
75 59 75
74 58 74
72 57 72
71 56 71
70 55 70
68 53 68
67 52 67
66 51 66
64 50 64
61 48 61
62 49 62
64 50 64
65 51 65
66 52 66
68 53 68
69 54 69
70 55 70
72 56 72
73 57 73
75 59 75
76 60 76
78 61 78
80 62 80
81 64 81
83 65 83
84 66 84
86 67 86
88 69 88
89 70 89
91 71 91
92 72 92
94 73 94
95 75 95
97 76 97
98 77 98
99 77 99
100 78 100
101 79 101
102 80 102
102 80 102
103 80 103
103 81 103
103 81 103
103 81 103
103 81 103
102 80 102
102 80 102
101 79 101
100 79 100
99 78 99
98 77 98
97 76 97
96 75 96
94 74 94
93 73 93
91 72 91
90 70 90
88 69 88
87 68 87
85 67 85
83 65 83
82 64 82
80 63 80
79 62 79
77 60 77
75 59 75
74 58 74
72 57 72
71 56 71
70 54 70
68 53 68
67 52 67
65 51 65
62 49 62
63 50 63
65 51 65
66 52 66
67 53 67
69 54 69
70 55 70
72 56 72
73 57 73
75 59 75
76 60 76
78 61 78
80 62 80
81 64 81
83 65 83
85 66 85
87 68 87
88 69 88
90 71 90
92 72 92
94 73 94
95 75 95
97 76 97
98 77 98
100 78 100
101 79 101
102 80 102
104 81 104
105 82 105
105 83 105
106 83 106
107 83 107
107 84 107
107 84 107
107 84 107
107 84 107
106 83 106
106 83 106
105 82 105
104 81 104
103 81 103
102 80 102
100 79 100
99 77 99
97 76 97
96 75 96
94 74 94
92 72 92
91 71 91
89 70 89
87 68 87
85 67 85
84 66 84
82 64 82
80 63 80
79 62 79
77 60 77
75 59 75
74 58 74
72 57 72
71 55 71
69 54 69
68 53 68
66 52 66
63 49 63
64 50 64
66 51 66
67 52 67
68 54 68
70 55 70
71 56 71
73 57 73
75 58 75
76 60 76
78 61 78
80 62 80
81 64 81
83 65 83
85 67 85
87 68 87
89 70 89
91 71 91
93 73 93
94 74 94
96 75 96
98 77 98
100 78 100
102 80 102
103 81 103
105 82 105
106 83 106
107 84 107
109 85 109
109 86 109
110 86 110
111 87 111
111 87 111
111 87 111
111 87 111
111 87 111
110 87 110
110 86 110
109 85 109
108 84 108
107 83 107
105 82 105
104 81 104
102 80 102
100 79 100
99 77 99
97 76 97
95 74 95
93 73 93
91 72 91
89 70 89
88 69 88
86 67 86
84 66 84
82 64 82
80 63 80
79 61 79
77 60 77
75 59 75
73 58 73
72 56 72
70 55 70
69 54 69
67 53 67
64 50 64
65 51 65
66 52 66
68 53 68
69 54 69
71 56 71
73 57 73
74 58 74
76 59 76
78 61 78
79 62 79
81 64 81
83 65 83
85 67 85
87 68 87
89 70 89
91 71 91
93 73 93
95 75 95
97 76 97
99 78 99
101 79 101
103 81 103
105 82 105
107 84 107
109 85 109
110 86 110
112 87 112
113 88 113
114 89 114
115 90 115
115 90 115
116 91 116
116 91 116
116 91 116
115 90 115
115 90 115
114 89 114
113 89 113
112 88 112
111 87 111
109 85 109
107 84 107
106 83 106
104 81 104
102 80 102
100 78 100
98 77 98
96 75 96
94 73 94
92 72 92
90 70 90
88 69 88
86 67 86
84 66 84
82 64 82
80 63 80
78 61 78
76 60 76
75 59 75
73 57 73
71 56 71
70 55 70
68 54 68
64 50 64
66 52 66
67 53 67
69 54 69
70 55 70
72 56 72
74 58 74
75 59 75
77 60 77
79 62 79
81 63 81
83 65 83
85 67 85
87 68 87
89 70 89
91 71 91
93 73 93
96 75 96
98 77 98
100 78 100
102 80 102
104 82 104
107 83 107
109 85 109
111 87 111
113 88 113
114 90 114
116 91 116
117 92 117
118 93 118
119 94 119
120 94 120
121 94 121
121 95 121
121 95 121
120 94 120
120 94 120
119 93 119
118 92 118
116 91 116
115 90 115
113 89 113
111 87 111
109 86 109
107 84 107
105 82 105
103 81 103
101 79 101
99 77 99
96 75 96
94 74 94
92 72 92
90 70 90
88 69 88
86 67 86
84 65 84
82 64 82
80 62 80
78 61 78
76 60 76
74 58 74
73 57 73
71 56 71
69 54 69
65 51 65
67 52 67
68 53 68
70 55 70
71 56 71
73 57 73
75 59 75
77 60 77
79 62 79
81 63 81
83 65 83
85 66 85
87 68 87
89 70 89
91 71 91
93 73 93
96 75 96
98 77 98
101 79 101
103 81 103
105 83 105
108 84 108
110 86 110
112 88 112
115 90 115
117 91 117
119 93 119
120 94 120
122 96 122
123 97 123
124 98 124
125 98 125
126 99 126
126 99 126
126 99 126
125 98 125
125 98 125
124 97 124
123 96 123
121 95 121
119 93 119
117 92 117
115 90 115
113 89 113
111 87 111
109 85 109
106 83 106
104 81 104
101 79 101
99 78 99
97 76 97
94 74 94
92 72 92
90 70 90
87 68 87
85 67 85
83 65 83
81 64 81
79 62 79
77 61 77
75 59 75
74 58 74
72 56 72
70 55 70
66 52 66
67 53 67
69 54 69
71 55 71
72 57 72
74 58 74
76 60 76
78 61 78
80 63 80
82 64 82
84 66 84
86 68 86
89 69 89
91 71 91
93 73 93
96 75 96
98 77 98
101 79 101
103 81 103
106 83 106
109 85 109
111 87 111
114 89 114
116 91 116
119 93 119
121 95 121
123 97 123
125 98 125
127 100 127
129 101 129
130 102 130
131 103 131
131 103 131
132 103 132
132 103 132
131 103 131
130 102 130
129 101 129
128 100 128
126 99 126
124 97 124
122 96 122
120 94 120
117 92 117
115 90 115
112 88 112
110 86 110
107 84 107
104 82 104
102 80 102
99 78 99
97 76 97
94 74 94
92 72 92
89 70 89
87 68 87
85 66 85
83 65 83
81 63 81
79 62 79
77 60 77
75 59 75
73 57 73
71 56 71
67 52 67
68 53 68
70 55 70
72 56 72
73 57 73
75 59 75
77 60 77
79 62 79
81 64 81
83 65 83
86 67 86
88 69 88
90 71 90
93 73 93
95 75 95
98 77 98
101 79 101
103 81 103
106 83 106
109 85 109
112 88 112
115 90 115
118 92 118
121 94 121
123 97 123
126 99 126
128 101 128
131 102 131
133 104 133
134 105 134
136 106 136
137 107 137
137 108 137
138 108 138
138 108 138
137 107 137
136 107 136
135 106 135
133 104 133
131 103 131
129 101 129
127 99 127
124 97 124
121 95 121
119 93 119
116 91 116
113 89 113
110 86 110
107 84 107
104 82 104
102 80 102
99 77 99
96 75 96
94 73 94
91 71 91
89 69 89
86 68 86
84 66 84
82 64 82
80 63 80
78 61 78
76 59 76
74 58 74
72 57 72
67 53 67
69 54 69
71 55 71
72 57 72
74 58 74
76 60 76
78 61 78
80 63 80
83 65 83
85 66 85
87 68 87
90 70 90
92 72 92
95 74 95
97 76 97
100 79 100
103 81 103
106 83 106
109 86 109
112 88 112
115 90 115
119 93 119
122 95 122
125 98 125
128 100 128
131 103 131
134 105 134
136 107 136
138 108 138
140 110 140
142 111 142
143 112 143
144 113 144
144 113 144
144 113 144
143 112 143
142 112 142
141 110 141
139 109 139
137 107 137
134 105 134
132 103 132
129 101 129
126 99 126
123 96 123
120 94 120
117 91 117
113 89 113
110 86 110
107 84 107
104 82 104
101 79 101
98 77 98
96 75 96
93 73 93
90 71 90
88 69 88
86 67 86
83 65 83
81 63 81
79 62 79
77 60 77
75 59 75
73 57 73
68 53 68
70 55 70
72 56 72
73 57 73
75 59 75
77 60 77
79 62 79
82 64 82
84 66 84
86 67 86
89 69 89
91 71 91
94 74 94
97 76 97
100 78 100
103 80 103
106 83 106
109 85 109
112 88 112
116 91 116
119 93 119
122 96 122
126 99 126
129 101 129
133 104 133
136 107 136
139 109 139
142 111 142
145 113 145
147 115 147
149 116 149
150 118 150
151 118 151
151 119 151
151 118 151
150 118 150
149 117 149
147 116 147
145 114 145
143 112 143
140 110 140
137 107 137
134 105 134
130 102 130
127 100 127
124 97 124
120 94 120
117 91 117
113 89 113
110 86 110
107 84 107
104 81 104
101 79 101
98 76 98
95 74 95
92 72 92
89 70 89
87 68 87
85 66 85
82 64 82
80 63 80
78 61 78
76 59 76
74 58 74
69 54 69
70 55 70
72 57 72
74 58 74
76 60 76
78 61 78
80 63 80
83 65 83
85 67 85
87 68 87
90 71 90
93 73 93
96 75 96
99 77 99
102 80 102
105 82 105
108 85 108
112 87 112
115 90 115
119 93 119
123 96 123
126 99 126
130 102 130
134 105 134
138 108 138
141 111 141
145 114 145
148 116 148
151 118 151
154 120 154
156 122 156
157 123 157
158 124 158
159 124 159
159 124 159
158 124 158
156 123 156
154 121 154
152 119 152
149 117 149
146 114 146
143 112 143
139 109 139
135 106 135
131 103 131
128 100 128
124 97 124
120 94 120
116 91 116
113 88 113
109 86 109
106 83 106
103 80 103
100 78 100
97 76 97
94 73 94
91 71 91
88 69 88
86 67 86
83 65 83
81 64 81
79 62 79
77 60 77
75 59 75
69 54 69
71 56 71
73 57 73
75 59 75
77 60 77
79 62 79
81 64 81
84 66 84
86 67 86
89 70 89
91 72 91
94 74 94
97 76 97
100 79 100
104 81 104
107 84 107
111 87 111
114 90 114
118 93 118
122 96 122
126 99 126
130 102 130
134 105 134
139 109 139
143 112 143
147 115 147
151 118 151
155 121 155
158 124 158
161 126 161
163 128 163
165 129 165
166 130 166
167 131 167
167 131 167
166 130 166
164 129 164
162 127 162
159 125 159
156 122 156
152 119 152
148 116 148
144 113 144
140 110 140
136 106 136
132 103 132
127 100 127
123 97 123
119 94 119
116 91 116
112 88 112
108 85 108
105 82 105
101 79 101
98 77 98
95 75 95
92 72 92
90 70 90
87 68 87
85 66 85
82 64 82
80 63 80
78 61 78
76 59 76
70 55 70
72 56 72
74 58 74
76 59 76
78 61 78
80 63 80
82 64 82
85 66 85
87 68 87
90 70 90
93 73 93
96 75 96
99 77 99
102 80 102
106 83 106
109 86 109
113 89 113
117 92 117
121 95 121
125 98 125
130 102 130
134 105 134
139 109 139
143 112 143
148 116 148
153 120 153
157 123 157
161 126 161
165 129 165
169 132 169
171 134 171
173 136 173
175 137 175
175 137 175
175 137 175
174 136 174
172 135 172
170 133 170
166 130 166
163 127 163
159 124 159
154 121 154
150 117 150
145 114 145
140 110 140
136 106 136
131 103 131
127 99 127
122 96 122
118 93 118
114 90 114
110 87 110
107 84 107
103 81 103
100 78 100
97 76 97
94 73 94
91 71 91
88 69 88
86 67 86
83 65 83
81 63 81
79 61 79
76 60 76
70 55 70
72 57 72
74 58 74
76 60 76
79 61 79
81 63 81
83 65 83
86 67 86
88 69 88
91 71 91
94 74 94
97 76 97
100 79 100
104 81 104
107 84 107
111 87 111
115 90 115
119 94 119
124 97 124
128 101 128
133 104 133
138 108 138
143 112 143
148 116 148
153 120 153
159 124 159
164 128 164
168 132 168
173 135 173
176 138 176
180 141 180
182 143 182
184 144 184
184 144 184
184 144 184
183 143 183
181 142 181
178 139 178
174 136 174
170 133 170
165 129 165
160 126 160
155 122 155
150 118 150
145 114 145
140 110 140
135 106 135
130 102 130
125 98 125
121 95 121
117 91 117
113 88 113
109 85 109
105 82 105
102 80 102
98 77 98
95 74 95
92 72 92
89 70 89
87 68 87
84 66 84
82 64 82
79 62 79
77 60 77
71 56 71
73 57 73
75 59 75
77 60 77
79 62 79
82 64 82
84 66 84
87 68 87
89 70 89
92 72 92
95 75 95
98 77 98
102 80 102
105 83 105
109 86 109
113 89 113
118 92 118
122 96 122
127 99 127
132 103 132
137 107 137
142 111 142
147 116 147
0 0 0
0 0 0
0 0 0
0 26 0
0 40 0
0 43 0
0 28 0
188 148 188
191 150 191
193 151 193
194 152 194
193 152 193
192 150 192
189 148 189
186 146 186
182 142 182
177 139 177
172 135 172
166 130 166
161 126 161
155 121 155
149 117 149
144 113 144
138 108 138
133 104 133
128 100 128
123 97 123
119 93 119
115 90 115
111 87 111
107 84 107
103 81 103
100 78 100
96 75 96
93 73 93
90 71 90
88 69 88
85 66 85
82 64 82
80 63 80
78 61 78
71 56 71
73 57 73
75 59 75
78 61 78
80 63 80
82 64 82
85 66 85
87 68 87
90 71 90
93 73 93
96 75 96
100 78 100
103 81 103
107 84 107
111 87 111
115 90 115
120 94 120
124 97 124
129 101 129
134 105 134
0 0 0
0 0 0
0 0 0
0 0 0
0 32 0
0 55 0
0 72 0
0 84 0
0 92 0
0 94 0
0 89 0
0 64 0
203 159 203
203 159 203
203 159 203
201 158 201
198 156 198
195 152 195
190 149 190
184 144 184
178 140 178
172 135 172
166 130 166
160 125 160
154 120 154
148 116 148
142 111 142
136 107 136
131 103 131
126 99 126
121 95 121
117 91 117
112 88 112
108 85 108
104 82 104
101 79 101
97 76 97
94 74 94
91 71 91
88 69 88
86 67 86
83 65 83
81 63 81
78 61 78
72 56 72
74 58 74
76 59 76
78 61 78
80 63 80
83 65 83
85 67 85
88 69 88
91 71 91
94 74 94
97 76 97
101 79 101
104 82 104
108 85 108
112 88 112
117 92 117
121 95 121
126 99 126
132 103 132
0 0 0
0 0 0
0 0 0
0 0 0
0 35 0
0 61 0
0 80 0
0 96 0
0 109 0
0 119 0
0 125 0
0 126 0
0 119 0
0 93 0
213 167 213
213 167 213
211 165 211
208 163 208
203 159 203
198 155 198
192 150 192
185 145 185
178 140 178
171 134 171
164 129 164
158 124 158
151 119 151
145 114 145
139 109 139
133 105 133
128 100 128
123 96 123
118 93 118
114 89 114
110 86 110
106 83 106
102 80 102
98 77 98
95 75 95
92 72 92
89 70 89
86 68 86
84 66 84
81 64 81
79 62 79
72 57 72
74 58 74
76 60 76
79 62 79
81 63 81
83 65 83
86 67 86
89 70 89
92 72 92
95 74 95
98 77 98
102 80 102
106 83 106
110 86 110
114 89 114
118 93 118
123 97 123
128 101 128
0 0 0
0 0 0
0 0 0
0 0 0
0 25 0
0 55 0
0 78 0
0 97 0
0 113 0
0 127 0
0 139 0
0 147 0
0 152 0
0 150 0
0 137 0
0 99 0
0 0 73
0 0 80
0 0 74
0 0 43
205 161 205
198 156 198
191 150 191
184 144 184
176 138 176
169 132 169
162 127 162
155 121 155
148 116 148
142 111 142
136 106 136
130 102 130
125 98 125
120 94 120
115 90 115
111 87 111
107 84 107
103 81 103
99 78 99
96 75 96
93 73 93
90 70 90
87 68 87
84 66 84
82 64 82
79 62 79
72 57 72
75 58 75
77 60 77
79 62 79
81 64 81
84 66 84
87 68 87
89 70 89
92 72 92
96 75 96
99 78 99
103 80 103
106 83 106
111 87 111
115 90 115
120 94 120
125 98 125
130 102 130
0 0 0
0 0 0
0 0 0
0 0 0
0 41 0
0 67 0
0 89 0
0 108 0
0 125 0
0 140 0
0 153 0
0 163 0
0 170 0
0 171 0
0 164 0
0 141 0
0 0 130
0 0 138
0 0 139
0 0 130
0 0 109
0 0 50
197 154 197
189 148 189
181 142 181
173 135 173
165 129 165
158 123 158
151 118 151
144 113 144
138 108 138
132 103 132
126 99 126
121 95 121
117 91 117
112 88 112
108 84 108
104 81 104
100 78 100
97 76 97
93 73 93
90 71 90
87 68 87
85 66 85
82 64 82
80 62 80
73 57 73
75 59 75
77 60 77
79 62 79
82 64 82
84 66 84
87 68 87
90 70 90
93 73 93
96 75 96
100 78 100
103 81 103
107 84 107
111 87 111
116 91 116
121 95 121
126 99 126
131 103 131
0 0 0
0 0 0
0 0 0
0 12 0
0 49 0
0 75 0
0 96 0
0 116 0
0 133 0
0 149 0
0 163 0
0 174 0
0 183 0
0 186 0
0 182 0
0 164 0
0 0 168
0 0 177
0 0 180
0 0 174
0 0 160
0 0 134
0 0 80
193 151 193
184 144 184
176 138 176
168 131 168
160 125 160
153 120 153
146 114 146
139 109 139
133 104 133
128 100 128
122 96 122
118 92 118
113 88 113
109 85 109
105 82 105
101 79 101
97 76 97
94 74 94
91 71 91
88 69 88
85 67 85
83 65 83
80 63 80
73 57 73
75 59 75
77 60 77
79 62 79
82 64 82
85 66 85
87 68 87
90 71 90
93 73 93
97 76 97
100 78 100
104 81 104
108 84 108
112 88 112
117 91 117
122 95 122
127 99 127
132 104 132
0 0 0
0 0 0
0 0 0
0 17 0
0 52 0
0 78 0
0 100 0
0 120 0
0 138 0
0 154 0
0 169 0
0 181 0
0 191 0
0 195 0
0 193 0
0 178 0
0 0 195
0 0 206
0 0 210
0 0 206
0 0 195
0 0 174
0 0 140
0 0 56
187 147 187
178 140 178
170 133 170
162 127 162
154 121 154
147 115 147
141 110 141
134 105 134
129 101 129
123 97 123
118 93 118
114 89 114
109 86 109
105 82 105
101 79 101
98 77 98
94 74 94
91 71 91
88 69 88
85 67 85
83 65 83
80 63 80
73 57 73
75 59 75
77 61 77
80 62 80
82 64 82
85 66 85
87 68 87
90 71 90
94 73 94
97 76 97
100 79 100
104 82 104
108 85 108
113 88 113
117 92 117
122 96 122
127 100 127
133 104 133
0 0 0
0 0 0
0 0 0
0 15 0
0 51 0
0 78 0
0 100 0
0 120 0
0 138 0
0 155 0
0 171 0
0 184 0
0 194 0
0 199 0
0 197 0
0 183 0
0 0 215
0 0 227
0 0 232
0 0 230
0 0 220
0 0 201
0 0 172
0 0 124
189 148 189
180 141 180
172 134 172
163 128 163
156 122 156
148 116 148
142 111 142
135 106 135
129 101 129
124 97 124
119 93 119
114 89 114
110 86 110
105 83 105
102 80 102
98 77 98
95 74 95
91 72 91
88 69 88
86 67 86
83 65 83
80 63 80
73 57 73
75 59 75
77 61 77
80 62 80
82 64 82
85 66 85
88 69 88
91 71 91
94 73 94
97 76 97
101 79 101
104 82 104
108 85 108
113 88 113
117 92 117
122 96 122
128 100 128
134 105 134
0 0 0
0 0 0
0 0 0
0 3 0
0 45 0
0 73 0
0 96 0
0 117 0
0 136 0
0 153 0
0 168 0
0 181 0
0 191 0
0 197 0
0 194 0
0 0 211
0 0 228
0 0 240
0 0 246
0 0 245
0 0 236
0 0 219
0 0 192
0 0 152
190 149 190
181 142 181
172 135 172
164 129 164
156 122 156
149 117 149
142 111 142
136 106 136
130 102 130
124 97 124
119 93 119
114 90 114
110 86 110
106 83 106
102 80 102
98 77 98
95 74 95
92 72 92
89 69 89
86 67 86
83 65 83
81 63 81
73 57 73
75 59 75
77 61 77
80 62 80
82 64 82
85 66 85
88 69 88
91 71 91
94 73 94
97 76 97
101 79 101
104 82 104
108 85 108
113 88 113
117 92 117
122 96 122
128 100 128
134 105 134
0 0 0
0 0 0
0 0 0
0 0 0
0 33 0
0 64 0
0 89 0
0 110 0
0 129 0
0 146 0
0 161 0
0 174 0
0 183 0
0 188 0
0 183 0
0 0 217
0 0 234
0 0 247
0 0 253
0 0 252
0 0 244
0 0 228
0 0 203
0 0 166
0 0 101
181 142 181
172 135 172
164 129 164
156 122 156
149 117 149
142 111 142
136 106 136
130 102 130
124 97 124
119 93 119
114 90 114
110 86 110
106 83 106
102 80 102
98 77 98
95 74 95
92 72 92
89 69 89
86 67 86
83 65 83
81 63 81
73 57 73
75 59 75
77 61 77
80 62 80
82 64 82
85 66 85
87 68 87
90 71 90
94 73 94
97 76 97
100 79 100
104 82 104
108 85 108
113 88 113
117 92 117
122 96 122
127 100 127
133 104 133
139 109 139
0 0 0
0 0 0
0 0 0
0 8 0
0 48 0
0 75 0
0 98 0
0 117 0
0 134 0
0 149 0
0 161 0
0 169 0
0 171 0
0 0 195
0 0 217
0 0 234
0 0 246
0 0 253
0 0 253
0 0 245
0 0 230
0 0 205
0 0 170
0 0 111
180 141 180
172 134 172
163 128 163
156 122 156
148 116 148
142 111 142
135 106 135
129 101 129
124 97 124
119 93 119
114 89 114
110 86 110
105 83 105
102 80 102
98 77 98
95 74 95
91 72 91
88 69 88
86 67 86
83 65 83
80 63 80
73 57 73
75 59 75
77 60 77
79 62 79
82 64 82
85 66 85
87 68 87
90 71 90
93 73 93
97 76 97
100 78 100
104 81 104
108 84 108
112 88 112
117 91 117
122 95 122
127 99 127
132 104 132
139 109 139
145 114 145
0 0 0
0 0 0
0 0 0
0 19 0
0 54 0
0 79 0
0 99 0
0 116 0
0 130 0
0 141 0
0 146 0
0 144 0
0 0 189
0 0 211
0 0 228
0 0 240
0 0 246
0 0 246
0 0 239
0 0 224
0 0 200
0 0 165
0 0 106
178 140 178
170 133 170
162 127 162
154 121 154
147 115 147
141 110 141
134 105 134
129 101 129
123 97 123
118 93 118
114 89 114
109 86 109
105 82 105
101 79 101
98 77 98
94 74 94
91 71 91
88 69 88
85 67 85
83 65 83
80 63 80
73 57 73
75 59 75
77 60 77
79 62 79
82 64 82
84 66 84
87 68 87
90 70 90
93 73 93
96 75 96
100 78 100
103 81 103
107 84 107
111 87 111
116 91 116
121 95 121
126 99 126
131 103 131
137 108 137
144 113 144
150 118 150
158 123 158
0 0 0
0 0 0
0 11 0
0 48 0
0 71 0
0 89 0
0 102 0
0 109 0
0 110 0
0 0 153
0 0 178
0 0 199
0 0 216
0 0 227
0 0 233
0 0 233
0 0 226
0 0 211
0 0 188
0 0 152
0 0 86
176 138 176
168 131 168
160 125 160
153 120 153
146 114 146
139 109 139
133 104 133
128 100 128
122 96 122
118 92 118
113 88 113
109 85 109
105 82 105
101 79 101
97 76 97
94 74 94
91 71 91
88 69 88
85 67 85
83 65 83
80 63 80
72 57 72
75 58 75
77 60 77
79 62 79
81 64 81
84 66 84
87 68 87
89 70 89
92 72 92
96 75 96
99 78 99
103 80 103
106 83 106
111 87 111
115 90 115
120 94 120
125 98 125
130 102 130
136 106 136
142 111 142
148 116 148
155 122 155
162 127 162
170 133 170
0 0 0
0 0 0
0 3 0
0 36 0
0 49 0
0 49 0
0 0 108
0 0 138
0 0 162
0 0 183
0 0 198
0 0 209
0 0 215
0 0 214
0 0 207
0 0 192
0 0 168
0 0 130
181 142 181
173 135 173
165 129 165
158 123 158
151 118 151
144 113 144
138 108 138
132 103 132
126 99 126
121 95 121
117 91 117
112 88 112
108 84 108
104 81 104
100 78 100
97 76 97
93 73 93
90 71 90
87 68 87
85 66 85
82 64 82
80 62 80
72 57 72
74 58 74
76 60 76
79 62 79
81 63 81
83 65 83
86 67 86
89 70 89
92 72 92
95 74 95
98 77 98
102 80 102
106 83 106
110 86 110
114 89 114
118 93 118
123 97 123
128 101 128
134 105 134
140 109 140
146 114 146
152 119 152
159 125 159
166 130 166
174 136 174
181 142 181
189 148 189
0 0 0
0 0 0
0 0 45
0 0 86
0 0 117
0 0 141
0 0 161
0 0 176
0 0 186
0 0 191
0 0 190
0 0 183
0 0 167
0 0 141
0 0 93
176 138 176
169 132 169
162 127 162
155 121 155
148 116 148
142 111 142
136 106 136
130 102 130
125 98 125
120 94 120
115 90 115
111 87 111
107 84 107
103 81 103
99 78 99
96 75 96
93 73 93
90 70 90
87 68 87
84 66 84
82 64 82
79 62 79
72 56 72
74 58 74
76 59 76
78 61 78
80 63 80
83 65 83
85 67 85
88 69 88
91 71 91
94 74 94
97 76 97
101 79 101
104 82 104
108 85 108
112 88 112
117 92 117
121 95 121
126 99 126
132 103 132
137 107 137
143 112 143
149 117 149
156 122 156
162 127 162
169 132 169
176 138 176
183 143 183
189 148 189
0 0 0
0 0 0
0 0 54
0 0 89
0 0 114
0 0 134
0 0 149
0 0 158
0 0 163
0 0 161
0 0 151
0 0 133
0 0 100
178 140 178
171 134 171
164 129 164
158 124 158
151 119 151
145 114 145
139 109 139
133 105 133
128 100 128
123 96 123
118 93 118
114 89 114
110 86 110
106 83 106
102 80 102
98 77 98
95 75 95
92 72 92
89 70 89
86 68 86
84 66 84
81 64 81
79 62 79
71 56 71
73 57 73
75 59 75
78 61 78
80 63 80
82 64 82
85 66 85
87 68 87
90 71 90
93 73 93
96 75 96
100 78 100
103 81 103
107 84 107
111 87 111
115 90 115
120 94 120
124 97 124
129 101 129
134 105 134
140 110 140
146 114 146
152 119 152
158 124 158
164 129 164
170 133 170
176 138 176
182 143 182
188 147 188
0 0 0
0 0 0
0 0 47
0 0 78
0 0 100
0 0 115
0 0 124
0 0 127
0 0 123
0 0 110
0 0 83
178 140 178
172 135 172
166 130 166
160 125 160
154 120 154
148 116 148
142 111 142
136 107 136
131 103 131
126 99 126
121 95 121
117 91 117
112 88 112
108 85 108
104 82 104
101 79 101
97 76 97
94 74 94
91 71 91
88 69 88
86 67 86
83 65 83
81 63 81
78 61 78
71 56 71
73 57 73
75 59 75
77 60 77
79 62 79
82 64 82
84 66 84
87 68 87
89 70 89
92 72 92
95 75 95
98 77 98
102 80 102
105 83 105
109 86 109
113 89 113
118 92 118
122 96 122
127 99 127
132 103 132
137 107 137
142 111 142
147 116 147
153 120 153
159 124 159
164 129 164
170 133 170
175 137 175
180 141 180
185 145 185
188 148 188
0 0 0
0 0 10
0 0 48
0 0 67
0 0 76
0 0 76
0 0 66
182 142 182
177 139 177
172 135 172
166 130 166
161 126 161
155 121 155
149 117 149
144 113 144
138 108 138
133 104 133
128 100 128
123 97 123
119 93 119
115 90 115
111 87 111
107 84 107
103 81 103
100 78 100
96 75 96
93 73 93
90 71 90
88 69 88
85 66 85
82 64 82
80 63 80
78 61 78
70 55 70
72 57 72
74 58 74
76 60 76
79 61 79
81 63 81
83 65 83
86 67 86
88 69 88
91 71 91
94 74 94
97 76 97
100 79 100
104 81 104
107 84 107
111 87 111
115 90 115
119 94 119
124 97 124
128 101 128
133 104 133
138 108 138
143 112 143
148 116 148
153 120 153
159 124 159
164 128 164
168 132 168
173 135 173
176 138 176
180 141 180
182 143 182
184 144 184
184 144 184
184 144 184
183 143 183
181 142 181
178 139 178
174 136 174
170 133 170
165 129 165
160 126 160
155 122 155
150 118 150
145 114 145
140 110 140
135 106 135
130 102 130
125 98 125
121 95 121
117 91 117
113 88 113
109 85 109
105 82 105
102 80 102
98 77 98
95 74 95
92 72 92
89 70 89
87 68 87
84 66 84
82 64 82
79 62 79
77 60 77
70 55 70
72 56 72
74 58 74
76 59 76
78 61 78
80 63 80
82 64 82
85 66 85
87 68 87
90 70 90
93 73 93
96 75 96
99 77 99
102 80 102
106 83 106
109 86 109
113 89 113
117 92 117
121 95 121
125 98 125
130 102 130
134 105 134
139 109 139
143 112 143
148 116 148
153 120 153
157 123 157
161 126 161
165 129 165
169 132 169
171 134 171
173 136 173
175 137 175
175 137 175
175 137 175
174 136 174
172 135 172
170 133 170
166 130 166
163 127 163
159 124 159
154 121 154
150 117 150
145 114 145
140 110 140
136 106 136
131 103 131
127 99 127
122 96 122
118 93 118
114 90 114
110 87 110
107 84 107
103 81 103
100 78 100
97 76 97
94 73 94
91 71 91
88 69 88
86 67 86
83 65 83
81 63 81
79 61 79
76 60 76
69 54 69
71 56 71
73 57 73
75 59 75
77 60 77
79 62 79
81 64 81
84 66 84
86 67 86
89 70 89
91 72 91
94 74 94
97 76 97
100 79 100
104 81 104
107 84 107
111 87 111
114 90 114
118 93 118
122 96 122
126 99 126
130 102 130
134 105 134
139 109 139
143 112 143
147 115 147
151 118 151
155 121 155
158 124 158
161 126 161
163 128 163
165 129 165
166 130 166
167 131 167
167 131 167
166 130 166
164 129 164
162 127 162
159 125 159
156 122 156
152 119 152
148 116 148
144 113 144
140 110 140
136 106 136
132 103 132
127 100 127
123 97 123
119 94 119
116 91 116
112 88 112
108 85 108
105 82 105
101 79 101
98 77 98
95 75 95
92 72 92
90 70 90
87 68 87
85 66 85
82 64 82
80 63 80
78 61 78
76 59 76
69 54 69
70 55 70
72 57 72
74 58 74
76 60 76
78 61 78
80 63 80
83 65 83
85 67 85
87 68 87
90 71 90
93 73 93
96 75 96
99 77 99
102 80 102
105 82 105
108 85 108
112 87 112
115 90 115
119 93 119
123 96 123
126 99 126
130 102 130
134 105 134
138 108 138
141 111 141
145 114 145
148 116 148
151 118 151
154 120 154
156 122 156
157 123 157
158 124 158
159 124 159
159 124 159
158 124 158
156 123 156
154 121 154
152 119 152
149 117 149
146 114 146
143 112 143
139 109 139
135 106 135
131 103 131
128 100 128
124 97 124
120 94 120
116 91 116
113 88 113
109 86 109
106 83 106
103 80 103
100 78 100
97 76 97
94 73 94
91 71 91
88 69 88
86 67 86
83 65 83
81 64 81
79 62 79
77 60 77
75 59 75
68 53 68
70 55 70
72 56 72
73 57 73
75 59 75
77 60 77
79 62 79
82 64 82
84 66 84
86 67 86
89 69 89
91 71 91
94 74 94
97 76 97
100 78 100
103 80 103
106 83 106
109 85 109
112 88 112
116 91 116
119 93 119
122 96 122
126 99 126
129 101 129
133 104 133
136 107 136
139 109 139
142 111 142
145 113 145
147 115 147
149 116 149
150 118 150
151 118 151
151 119 151
151 118 151
150 118 150
149 117 149
147 116 147
145 114 145
143 112 143
140 110 140
137 107 137
134 105 134
130 102 130
127 100 127
124 97 124
120 94 120
117 91 117
113 89 113
110 86 110
107 84 107
104 81 104
101 79 101
98 76 98
95 74 95
92 72 92
89 70 89
87 68 87
85 66 85
82 64 82
80 63 80
78 61 78
76 59 76
74 58 74
67 53 67
69 54 69
71 55 71
72 57 72
74 58 74
76 60 76
78 61 78
80 63 80
83 65 83
85 66 85
87 68 87
90 70 90
92 72 92
95 74 95
97 76 97
100 79 100
103 81 103
106 83 106
109 86 109
112 88 112
115 90 115
119 93 119
122 95 122
125 98 125
128 100 128
131 103 131
134 105 134
136 107 136
138 108 138
140 110 140
142 111 142
143 112 143
144 113 144
144 113 144
144 113 144
143 112 143
142 112 142
141 110 141
139 109 139
137 107 137
134 105 134
132 103 132
129 101 129
126 99 126
123 96 123
120 94 120
117 91 117
113 89 113
110 86 110
107 84 107
104 82 104
101 79 101
98 77 98
96 75 96
93 73 93
90 71 90
88 69 88
86 67 86
83 65 83
81 63 81
79 62 79
77 60 77
75 59 75
73 57 73
67 52 67
68 53 68
70 55 70
72 56 72
73 57 73
75 59 75
77 60 77
79 62 79
81 64 81
83 65 83
86 67 86
88 69 88
90 71 90
93 73 93
95 75 95
98 77 98
101 79 101
103 81 103
106 83 106
109 85 109
112 88 112
115 90 115
118 92 118
121 94 121
123 97 123
126 99 126
128 101 128
131 102 131
133 104 133
134 105 134
136 106 136
137 107 137
137 108 137
138 108 138
138 108 138
137 107 137
136 107 136
135 106 135
133 104 133
131 103 131
129 101 129
127 99 127
124 97 124
121 95 121
119 93 119
116 91 116
113 89 113
110 86 110
107 84 107
104 82 104
102 80 102
99 77 99
96 75 96
94 73 94
91 71 91
89 69 89
86 68 86
84 66 84
82 64 82
80 63 80
78 61 78
76 59 76
74 58 74
72 57 72
66 52 66
67 53 67
69 54 69
71 55 71
72 57 72
74 58 74
76 60 76
78 61 78
80 63 80
82 64 82
84 66 84
86 68 86
89 69 89
91 71 91
93 73 93
96 75 96
98 77 98
101 79 101
103 81 103
106 83 106
109 85 109
111 87 111
114 89 114
116 91 116
119 93 119
121 95 121
123 97 123
125 98 125
127 100 127
129 101 129
130 102 130
131 103 131
131 103 131
132 103 132
132 103 132
131 103 131
130 102 130
129 101 129
128 100 128
126 99 126
124 97 124
122 96 122
120 94 120
117 92 117
115 90 115
112 88 112
110 86 110
107 84 107
104 82 104
102 80 102
99 78 99
97 76 97
94 74 94
92 72 92
89 70 89
87 68 87
85 66 85
83 65 83
81 63 81
79 62 79
77 60 77
75 59 75
73 57 73
71 56 71
65 51 65
67 52 67
68 53 68
70 55 70
71 56 71
73 57 73
75 59 75
77 60 77
79 62 79
81 63 81
83 65 83
85 66 85
87 68 87
89 70 89
91 71 91
93 73 93
96 75 96
98 77 98
101 79 101
103 81 103
105 83 105
108 84 108
110 86 110
112 88 112
115 90 115
117 91 117
119 93 119
120 94 120
122 96 122
123 97 123
124 98 124
125 98 125
126 99 126
126 99 126
126 99 126
125 98 125
125 98 125
124 97 124
123 96 123
121 95 121
119 93 119
117 92 117
115 90 115
113 89 113
111 87 111
109 85 109
106 83 106
104 81 104
101 79 101
99 78 99
97 76 97
94 74 94
92 72 92
90 70 90
87 68 87
85 67 85
83 65 83
81 64 81
79 62 79
77 61 77
75 59 75
74 58 74
72 56 72
70 55 70
64 50 64
66 52 66
67 53 67
69 54 69
70 55 70
72 56 72
74 58 74
75 59 75
77 60 77
79 62 79
81 63 81
83 65 83
85 67 85
87 68 87
89 70 89
91 71 91
93 73 93
96 75 96
98 77 98
100 78 100
102 80 102
104 82 104
107 83 107
109 85 109
111 87 111
113 88 113
114 90 114
116 91 116
117 92 117
118 93 118
119 94 119
120 94 120
121 94 121
121 95 121
121 95 121
120 94 120
120 94 120
119 93 119
118 92 118
116 91 116
115 90 115
113 89 113
111 87 111
109 86 109
107 84 107
105 82 105
103 81 103
101 79 101
99 77 99
96 75 96
94 74 94
92 72 92
90 70 90
88 69 88
86 67 86
84 65 84
82 64 82
80 62 80
78 61 78
76 60 76
74 58 74
73 57 73
71 56 71
69 54 69
64 50 64
65 51 65
66 52 66
68 53 68
69 54 69
71 56 71
73 57 73
74 58 74
76 59 76
78 61 78
79 62 79
81 64 81
83 65 83
85 67 85
87 68 87
89 70 89
91 71 91
93 73 93
95 75 95
97 76 97
99 78 99
101 79 101
103 81 103
105 82 105
107 84 107
109 85 109
110 86 110
112 87 112
113 88 113
114 89 114
115 90 115
115 90 115
116 91 116
116 91 116
116 91 116
115 90 115
115 90 115
114 89 114
113 89 113
112 88 112
111 87 111
109 85 109
107 84 107
106 83 106
104 81 104
102 80 102
100 78 100
98 77 98
96 75 96
94 73 94
92 72 92
90 70 90
88 69 88
86 67 86
84 66 84
82 64 82
80 63 80
78 61 78
76 60 76
75 59 75
73 57 73
71 56 71
70 55 70
68 54 68
63 49 63
64 50 64
66 51 66
67 52 67
68 54 68
70 55 70
71 56 71
73 57 73
75 58 75
76 60 76
78 61 78
80 62 80
81 64 81
83 65 83
85 67 85
87 68 87
89 70 89
91 71 91
93 73 93
94 74 94
96 75 96
98 77 98
100 78 100
102 80 102
103 81 103
105 82 105
106 83 106
107 84 107
109 85 109
109 86 109
110 86 110
111 87 111
111 87 111
111 87 111
111 87 111
111 87 111
110 87 110
110 86 110
109 85 109
108 84 108
107 83 107
105 82 105
104 81 104
102 80 102
100 79 100
99 77 99
97 76 97
95 74 95
93 73 93
91 72 91
89 70 89
88 69 88
86 67 86
84 66 84
82 64 82
80 63 80
79 61 79
77 60 77
75 59 75
73 58 73
72 56 72
70 55 70
69 54 69
67 53 67
62 49 62
63 50 63
65 51 65
66 52 66
67 53 67
69 54 69
70 55 70
72 56 72
73 57 73
75 59 75
76 60 76
78 61 78
80 62 80
81 64 81
83 65 83
85 66 85
87 68 87
88 69 88
90 71 90
92 72 92
94 73 94
95 75 95
97 76 97
98 77 98
100 78 100
101 79 101
102 80 102
104 81 104
105 82 105
105 83 105
106 83 106
107 83 107
107 84 107
107 84 107
107 84 107
107 84 107
106 83 106
106 83 106
105 82 105
104 81 104
103 81 103
102 80 102
100 79 100
99 77 99
97 76 97
96 75 96
94 74 94
92 72 92
91 71 91
89 70 89
87 68 87
85 67 85
84 66 84
82 64 82
80 63 80
79 62 79
77 60 77
75 59 75
74 58 74
72 57 72
71 55 71
69 54 69
68 53 68
66 52 66
61 48 61
62 49 62
64 50 64
65 51 65
66 52 66
68 53 68
69 54 69
70 55 70
72 56 72
73 57 73
75 59 75
76 60 76
78 61 78
80 62 80
81 64 81
83 65 83
84 66 84
86 67 86
88 69 88
89 70 89
91 71 91
92 72 92
94 73 94
95 75 95
97 76 97
98 77 98
99 77 99
100 78 100
101 79 101
102 80 102
102 80 102
103 80 103
103 81 103
103 81 103
103 81 103
103 81 103
102 80 102
102 80 102
101 79 101
100 79 100
99 78 99
98 77 98
97 76 97
96 75 96
94 74 94
93 73 93
91 72 91
90 70 90
88 69 88
87 68 87
85 67 85
83 65 83
82 64 82
80 63 80
79 62 79
77 60 77
75 59 75
74 58 74
72 57 72
71 56 71
70 54 70
68 53 68
67 52 67
65 51 65
60 47 60
62 48 62
63 49 63
64 50 64
65 51 65
67 52 67
68 53 68
69 54 69
71 55 71
72 56 72
73 58 73
75 59 75
76 60 76
78 61 78
79 62 79
81 63 81
82 64 82
84 66 84
85 67 85
87 68 87
88 69 88
90 70 90
91 71 91
92 72 92
93 73 93
95 74 95
96 75 96
97 76 97
97 76 97
98 77 98
99 77 99
99 78 99
99 78 99
99 78 99
99 78 99
99 78 99
99 77 99
98 77 98
98 76 98
97 76 97
96 75 96
95 74 95
94 74 94
93 73 93
91 72 91
90 71 90
89 69 89
87 68 87
86 67 86
84 66 84
83 65 83
81 64 81
80 63 80
78 61 78
77 60 77
75 59 75
74 58 74
72 57 72
71 56 71
70 55 70
68 53 68
67 52 67
66 51 66
64 50 64
