P3
25 25 255

1 1 1
1 1 1
1 1 1
1 1 1
1 1 1
1 1 1
1 1 1
1 1 1
1 1 1
1 1 1
1 1 1
1 1 1
1 1 1
1 1 1
1 1 1
1 1 1
1 1 1
1 1 1
1 1 1
1 1 1
1 1 1
1 1 1
1 1 1
1 1 1
175 0 0
0 165 0
1 1 1
1 1 1
1 1 1
1 1 1
1 1 1
2 1 2
2 1 2
2 2 2
2 2 2
2 2 2
2 2 2
2 2 2
2 2 2
2 2 2
2 2 2
2 2 2
2 1 2
2 1 2
1 1 1
1 1 1
1 1 1
1 1 1
200 0 0
175 0 0
0 164 0
0 187 0
1 1 1
1 1 1
2 1 2
2 2 2
2 2 2
2 2 2
3 2 3
3 3 3
4 3 4
4 4 4
4 4 4
4 4 4
4 3 4
3 3 3
3 2 3
2 2 2
2 2 2
2 2 2
2 1 2
1 1 1
230 0 0
199 0 0
174 0 0
0 162 0
0 186 0
0 214 0
1 1 1
2 1 2
2 2 2
2 2 2
3 2 3
4 3 4
5 4 5
8 7 8
16 14 16
168 151 168
16 14 16
8 7 8
5 4 5
4 3 4
3 2 3
2 2 2
2 2 2
2 1 2
254 0 0
229 0 0
198 0 0
172 0 0
0 161 0
0 184 0
0 211 0
0 228 0
1 1 1
1 1 1
2 1 2
2 2 2
2 2 2
3 2 3
3 3 3
3 3 3
3 3 3
3 3 3
3 3 3
3 2 3
2 2 2
2 2 2
2 1 2
1 1 1
236 0 0
252 0 0
226 0 0
195 0 0
170 0 0
0 158 0
0 180 0
0 207 0
0 225 0
0 205 0
180 162 180
193 174 193
207 187 207
221 199 221
234 211 234
245 221 245
252 227 252
254 229 254
252 227 252
245 221 245
234 211 234
221 199 221
207 187 207
193 174 193
180 162 180
234 0 0
247 0 0
222 0 0
192 0 0
168 0 0
0 156 0
0 176 0
0 201 0
0 218 0
0 201 0
179 161 179
192 173 192
205 185 205
219 197 219
231 209 231
242 218 242
249 224 249
251 227 251
249 224 249
242 218 242
231 209 231
219 197 219
205 185 205
192 173 192
179 161 179
229 0 0
240 0 0
216 0 0
188 0 0
165 0 0
0 152 0
0 172 0
0 195 0
0 211 0
0 196 0
176 159 176
188 170 188
201 181 201
214 193 214
225 203 225
235 212 235
241 218 241
243 220 243
241 218 241
235 212 235
225 203 225
214 193 214
201 181 201
188 170 188
176 159 176
222 0 0
231 0 0
209 0 0
183 0 0
162 0 0
0 149 0
0 167 0
0 188 0
0 201 0
0 188 0
172 155 172
183 165 183
195 176 195
206 186 206
216 195 216
225 203 225
230 208 230
232 210 232
230 208 230
225 203 225
216 195 216
206 186 206
195 176 195
183 165 183
172 155 172
213 0 0
221 0 0
202 0 0
178 0 0
159 0 0
0 146 0
0 162 0
0 180 0
0 192 0
0 180 0
166 150 166
176 159 176
187 168 187
197 177 197
206 185 206
213 192 213
218 196 218
219 198 219
218 196 218
213 192 213
206 185 206
197 177 197
187 168 187
176 159 176
166 150 166
203 0 0
210 0 0
194 0 0
173 0 0
155 0 0
0 142 0
0 157 0
0 172 0
0 182 0
0 171 0
160 144 160
169 152 169
178 160 178
186 168 186
194 175 194
200 180 200
204 184 204
205 185 205
204 184 204
200 180 200
194 175 194
186 168 186
178 160 178
169 152 169
160 144 160
193 0 0
199 0 0
186 0 0
167 0 0
151 0 0
0 138 0
0 151 0
0 165 0
0 172 0
0 163 0
153 138 153
161 145 161
169 152 169
176 159 176
182 164 182
187 169 187
190 172 190
191 173 191
190 172 190
187 169 187
182 164 182
176 159 176
169 152 169
161 145 161
153 138 153
182 0 0
189 0 0
178 0 0
162 0 0
148 0 0
0 134 0
0 146 0
0 157 0
0 163 0
0 154 0
146 132 146
153 138 153
159 144 159
166 149 166
171 154 171
175 158 175
177 160 177
178 161 178
177 160 177
175 158 175
171 154 171
166 149 166
159 144 159
153 138 153
146 132 146
172 0 0
179 0 0
170 0 0
156 0 0
144 0 0
0 130 0
0 141 0
0 150 0
0 154 0
0 145 0
139 125 139
145 131 145
150 136 150
156 140 156
160 144 160
163 147 163
165 149 165
166 150 166
165 149 165
163 147 163
160 144 160
156 140 156
150 136 150
145 131 145
139 125 139
162 0 0
169 0 0
162 0 0
151 0 0
140 0 0
0 127 0
0 135 0
0 143 0
0 146 0
0 138 0
132 119 132
137 124 137
142 128 142
146 132 146
150 135 150
153 138 153
154 139 154
155 140 155
154 139 154
153 138 153
150 135 150
146 132 146
142 128 142
137 124 137
132 119 132
153 0 0
160 0 0
155 0 0
146 0 0
136 0 0
0 123 0
0 130 0
0 137 0
0 138 0
0 130 0
126 113 126
130 117 130
134 121 134
138 124 138
141 127 141
143 129 143
144 130 144
145 130 145
144 130 144
143 129 143
141 127 141
138 124 138
134 121 134
130 117 130
126 113 126
145 0 0
152 0 0
148 0 0
141 0 0
132 0 0
0 119 0
0 126 0
0 131 0
0 131 0
0 123 0
120 108 120
123 111 123
127 114 127
130 117 130
132 119 132
134 121 134
135 122 135
135 122 135
135 122 135
134 121 134
132 119 132
130 117 130
127 114 127
123 111 123
120 108 120
137 0 0
144 0 0
142 0 0
136 0 0
128 0 0
0 116 0
0 121 0
0 125 0
0 124 0
0 117 0
114 102 114
117 105 117
120 108 120
122 110 122
124 112 124
126 113 126
127 114 127
127 115 127
127 114 127
126 113 126
124 112 124
122 110 122
120 108 120
117 105 117
114 102 114
130 0 0
137 0 0
136 0 0
131 0 0
125 0 0
0 112 0
0 117 0
0 120 0
0 118 0
0 111 0
108 98 108
111 100 111
113 102 113
116 104 116
117 106 117
119 107 119
119 108 119
120 108 120
119 108 119
119 107 119
117 106 117
116 104 116
113 102 113
111 100 111
108 98 108
123 0 0
130 0 0
130 0 0
126 0 0
121 0 0
0 109 0
0 113 0
0 114 0
0 113 0
0 105 0
103 93 103
105 95 105
108 97 108
109 99 109
111 100 111
112 101 112
113 102 113
113 102 113
113 102 113
112 101 112
111 100 111
109 99 109
108 97 108
105 95 105
103 93 103
117 0 0
124 0 0
125 0 0
122 0 0
118 0 0
0 106 0
0 109 0
0 110 0
0 108 0
224 202 224
229 207 229
234 211 234
238 215 238
242 218 242
245 221 245
247 223 247
249 224 249
249 225 249
249 224 249
247 223 247
245 221 245
242 218 242
238 215 238
234 211 234
229 207 229
111 0 0
118 0 0
120 0 0
118 0 0
114 0 0
0 103 0
0 105 0
0 105 0
228 205 228
233 210 233
237 214 237
241 218 241
245 221 245
248 224 248
251 226 251
253 228 253
254 229 254
254 229 254
254 229 254
253 228 253
251 226 251
248 224 248
245 221 245
241 218 241
237 214 237
233 210 233
113 0 0
115 0 0
114 0 0
111 0 0
0 100 0
0 101 0
223 201 223
227 205 227
231 209 231
235 212 235
238 215 238
241 217 241
244 220 244
246 221 246
247 223 247
248 224 248
248 224 248
248 224 248
247 223 247
246 221 246
244 220 244
241 217 241
238 215 238
235 212 235
231 209 231
227 205 227
111 0 0
110 0 0
108 0 0
0 97 0
215 194 215
219 197 219
222 200 222
225 203 225
228 205 228
230 208 230
232 210 232
234 211 234
236 212 236
237 213 237
237 214 237
237 214 237
237 214 237
237 213 237
236 212 236
234 211 234
232 210 232
230 208 230
228 205 228
225 203 225
222 200 222
219 197 219
107 0 0
105 0 0
207 186 207
209 189 209
212 191 212
214 193 214
217 195 217
219 197 219
221 199 221
222 200 222
224 202 224
225 203 225
225 203 225
226 204 226
226 204 226
226 204 226
225 203 225
225 203 225
224 202 224
222 200 222
221 199 221
219 197 219
217 195 217
214 193 214
212 191 212
209 189 209
102 0 0
