P3
64 48 255

209 164 209
207 162 207
204 160 204
202 158 202
199 156 199
196 154 196
193 151 193
190 149 190
186 146 186
163 127 163
166 130 166
169 133 169
172 135 172
176 138 176
179 141 179
183 143 183
186 146 186
190 149 190
193 152 193
197 154 197
200 157 200
204 160 204
207 162 207
211 165 211
214 168 214
217 170 217
220 172 220
222 174 222
225 176 225
227 178 227
229 180 229
231 181 231
232 182 232
233 183 233
234 183 234
234 184 234
234 183 234
234 183 234
233 183 233
232 182 232
230 181 230
229 179 229
227 178 227
224 176 224
222 174 222
219 172 219
216 170 216
213 167 213
210 165 210
207 162 207
203 159 203
200 157 200
196 154 196
193 151 193
189 148 189
155 121 155
159 124 159
163 127 163
166 130 166
170 133 170
173 136 173
176 138 176
179 141 179
182 143 182
211 166 211
209 164 209
207 162 207
204 160 204
202 158 202
199 156 199
196 154 196
193 151 193
189 148 189
185 145 185
162 127 162
166 130 166
169 132 169
172 135 172
176 138 176
179 141 179
183 143 183
187 146 187
190 149 190
194 152 194
198 155 198
201 158 201
205 160 205
208 163 208
211 166 211
215 168 215
218 171 218
220 173 220
223 175 223
225 177 225
227 178 227
229 180 229
231 181 231
232 182 232
232 182 232
233 182 233
232 182 232
232 182 232
231 181 231
230 180 230
228 179 228
226 177 226
224 176 224
222 174 222
219 172 219
216 169 216
213 167 213
210 164 210
206 162 206
203 159 203
199 156 199
196 153 196
192 151 192
189 148 189
154 121 154
158 124 158
162 127 162
166 130 166
170 133 170
173 136 173
177 138 177
180 141 180
183 143 183
185 145 185
214 168 214
212 166 212
209 164 209
207 162 207
205 160 205
202 158 202
199 156 199
196 153 196
192 151 192
189 148 189
185 145 185
162 127 162
165 129 165
169 132 169
172 135 172
176 138 176
180 141 180
183 144 183
187 147 187
191 150 191
195 153 195
198 155 198
202 158 202
206 161 206
209 164 209
212 166 212
215 169 215
218 171 218
221 173 221
223 175 223
226 177 226
227 178 227
229 179 229
230 180 230
230 181 230
231 181 231
231 181 231
230 180 230
229 179 229
228 178 228
226 177 226
224 175 224
221 174 221
219 172 219
216 169 216
213 167 213
210 164 210
206 162 206
203 159 203
199 156 199
195 153 195
191 150 191
188 147 188
153 120 153
158 124 158
162 127 162
166 130 166
170 133 170
173 136 173
177 138 177
180 141 180
183 143 183
186 146 186
189 148 189
216 169 216
214 168 214
212 166 212
210 164 210
207 163 207
205 160 205
202 158 202
199 156 199
196 153 196
192 150 192
188 147 188
184 144 184
161 126 161
165 129 165
168 132 168
172 135 172
176 138 176
180 141 180
184 144 184
187 147 187
191 150 191
195 153 195
199 156 199
203 159 203
206 162 206
210 164 210
213 167 213
216 169 216
219 172 219
221 173 221
224 175 224
225 177 225
227 178 227
228 179 228
229 179 229
229 179 229
228 179 228
228 179 228
227 178 227
225 176 225
223 175 223
221 173 221
218 171 218
216 169 216
212 166 212
209 164 209
206 161 206
202 158 202
198 155 198
195 152 195
191 149 191
187 146 187
152 119 152
157 123 157
161 127 161
166 130 166
170 133 170
173 136 173
177 139 177
180 141 180
183 144 183
186 146 186
189 148 189
192 150 192
219 171 219
217 170 217
215 168 215
212 166 212
210 165 210
208 163 208
205 161 205
202 158 202
199 156 199
195 153 195
192 150 192
188 147 188
183 144 183
161 126 161
164 129 164
168 132 168
172 135 172
176 138 176
180 141 180
184 144 184
188 147 188
192 150 192
196 153 196
199 156 199
203 159 203
207 162 207
210 165 210
213 167 213
216 170 216
219 172 219
221 173 221
223 175 223
225 176 225
226 177 226
226 177 226
226 177 226
226 177 226
225 177 225
224 176 224
222 174 222
220 173 220
218 171 218
215 168 215
212 166 212
209 163 209
205 161 205
201 158 201
198 155 198
194 152 194
190 149 190
186 146 186
151 119 151
156 122 156
161 126 161
165 130 165
169 133 169
173 136 173
177 139 177
181 141 181
184 144 184
187 146 187
190 149 190
193 151 193
195 153 195
221 173 221
219 172 219
217 170 217
215 169 215
213 167 213
210 165 210
208 163 208
205 161 205
202 158 202
199 156 199
195 153 195
191 150 191
187 146 187
182 143 182
160 125 160
164 128 164
168 131 168
172 134 172
176 138 176
180 141 180
184 144 184
188 147 188
192 150 192
196 154 196
200 157 200
204 160 204
207 162 207
211 165 211
214 167 214
216 170 216
219 171 219
221 173 221
222 174 222
223 175 223
224 175 224
224 175 224
223 175 223
222 174 222
221 173 221
219 172 219
217 170 217
214 168 214
211 165 211
208 163 208
204 160 204
201 157 201
197 154 197
193 151 193
189 148 189
185 145 185
150 118 150
155 122 155
160 126 160
165 129 165
169 133 169
173 136 173
177 139 177
181 142 181
184 144 184
187 147 187
190 149 190
193 151 193
196 154 196
199 156 199
223 175 223
221 174 221
220 172 220
218 171 218
215 169 215
213 167 213
211 165 211
208 163 208
205 161 205
202 158 202
198 155 198
194 152 194
190 149 190
186 146 186
181 142 181
159 125 159
163 128 163
167 131 167
171 134 171
175 137 175
180 141 180
184 144 184
188 147 188
192 151 192
196 154 196
200 157 200
204 160 204
207 162 207
210 165 210
213 167 213
216 169 216
218 171 218
219 172 219
220 173 220
221 173 221
221 173 221
220 173 220
219 172 219
217 170 217
215 169 215
213 167 213
210 165 210
207 162 207
203 159 203
199 156 199
196 153 196
191 150 191
187 147 187
183 144 183
149 117 149
154 121 154
160 125 160
164 129 164
169 132 169
173 136 173
177 139 177
181 142 181
185 145 185
188 147 188
191 150 191
194 152 194
197 154 197
199 156 199
202 158 202
225 177 225
224 175 224
222 174 222
220 172 220
218 171 218
216 169 216
213 167 213
211 165 211
208 163 208
205 161 205
202 158 202
198 155 198
194 152 194
190 149 190
185 145 185
180 141 180
158 124 158
162 127 162
166 130 166
171 134 171
175 137 175
179 140 179
184 144 184
188 147 188
192 151 192
196 154 196
200 157 200
204 160 204
207 162 207
210 165 210
212 167 212
215 168 215
216 169 216
217 170 217
218 171 218
217 170 217
217 170 217
215 169 215
214 167 214
211 166 211
208 163 208
205 161 205
202 158 202
198 155 198
194 152 194
190 149 190
186 146 186
181 142 181
147 116 147
153 120 153
159 124 159
164 128 164
169 132 169
173 136 173
177 139 177
181 142 181
185 145 185
188 148 188
192 150 192
195 152 195
197 155 197
200 157 200
203 159 203
205 161 205
227 178 227
226 177 226
224 176 224
222 174 222
221 173 221
218 171 218
216 169 216
214 168 214
211 165 211
208 163 208
205 161 205
201 158 201
198 155 198
193 152 193
189 148 189
184 144 184
178 140 178
157 123 157
161 126 161
165 130 165
170 133 170
174 137 174
179 140 179
183 144 183
188 147 188
192 150 192
196 153 196
200 156 200
203 159 203
206 162 206
209 164 209
211 165 211
212 166 212
213 167 213
214 168 214
214 167 214
213 167 213
211 165 211
209 164 209
207 162 207
204 160 204
200 157 200
196 154 196
192 151 192
188 148 188
184 144 184
179 141 179
146 114 146
152 119 152
158 124 158
163 128 163
168 132 168
173 135 173
177 139 177
181 142 181
185 145 185
189 148 189
192 151 192
195 153 195
198 155 198
201 157 201
203 159 203
206 161 206
208 163 208
229 180 229
228 179 228
226 178 226
225 176 225
223 175 223
221 173 221
219 172 219
217 170 217
214 168 214
211 166 211
208 163 208
205 161 205
201 158 201
197 154 197
193 151 193
188 147 188
182 143 182
176 138 176
155 122 155
160 125 160
164 129 164
169 132 169
173 136 173
178 139 178
182 143 182
187 146 187
191 150 191
195 153 195
198 156 198
202 158 202
204 160 204
207 162 207
208 163 208
209 164 209
209 164 209
209 164 209
208 163 208
206 162 206
204 160 204
201 158 201
198 155 198
194 152 194
190 149 190
186 146 186
182 142 182
177 139 177
144 113 144
150 118 150
156 123 156
162 127 162
167 131 167
172 135 172
177 139 177
181 142 181
185 145 185
189 148 189
193 151 193
196 153 196
199 156 199
202 158 202
204 160 204
207 162 207
209 164 209
211 166 211
231 181 231
230 180 230
229 179 229
227 178 227
225 177 225
224 175 224
222 174 222
219 172 219
217 170 217
214 168 214
211 166 211
208 163 208
205 160 205
201 157 201
196 154 196
192 150 192
186 146 186
180 141 180
174 136 174
153 120 153
158 124 158
163 128 163
167 131 167
172 135 172
177 138 177
181 142 181
186 145 186
190 149 190
193 152 193
197 154 197
199 156 199
202 158 202
203 159 203
204 160 204
204 160 204
204 160 204
203 159 203
201 157 201
198 155 198
195 153 195
192 150 192
188 147 188
183 144 183
179 140 179
174 137 174
141 111 141
148 116 148
155 121 155
161 126 161
167 131 167
172 135 172
177 139 177
181 142 181
186 145 186
189 148 189
193 151 193
196 154 196
200 156 200
202 159 202
205 161 205
208 163 208
210 165 210
212 166 212
214 168 214
233 183 233
232 182 232
231 181 231
229 180 229
228 178 228
226 177 226
224 176 224
222 174 222
220 172 220
217 170 217
214 168 214
211 166 211
208 163 208
204 160 204
200 157 200
196 153 196
190 149 190
185 145 185
178 140 178
171 134 171
151 119 151
156 122 156
161 126 161
166 130 166
170 133 170
175 137 175
179 141 179
184 144 184
188 147 188
191 150 191
194 152 194
196 154 196
198 155 198
198 156 198
199 156 199
198 155 198
196 154 196
194 152 194
191 150 191
188 147 188
184 144 184
180 141 180
176 138 176
171 134 171
139 109 139
146 114 146
153 120 153
160 125 160
166 130 166
171 134 171
176 138 176
181 142 181
186 145 186
190 149 190
193 152 193
197 154 197
200 157 200
203 159 203
206 161 206
209 163 209
211 165 211
213 167 213
215 169 215
217 170 217
235 184 235
234 183 234
233 182 233
231 181 231
230 180 230
228 179 228
226 178 226
225 176 225
222 174 222
220 172 220
217 170 217
215 168 215
211 166 211
208 163 208
204 160 204
199 156 199
194 152 194
189 148 189
183 143 183
176 138 176
168 132 168
149 117 149
154 120 154
158 124 158
163 128 163
168 132 168
173 135 173
177 139 177
181 142 181
184 144 184
187 147 187
190 149 190
191 150 191
192 150 192
192 150 192
191 150 191
189 148 189
187 146 187
184 144 184
180 141 180
176 138 176
172 135 172
167 131 167
135 106 135
143 112 143
151 118 151
158 124 158
164 129 164
170 133 170
176 138 176
181 142 181
186 145 186
190 149 190
194 152 194
197 155 197
201 157 201
204 160 204
207 162 207
209 164 209
212 166 212
214 168 214
216 169 216
218 171 218
220 172 220
237 186 237
236 185 236
234 184 234
233 183 233
232 182 232
230 181 230
229 179 229
227 178 227
225 176 225
223 175 223
220 173 220
218 171 218
215 168 215
211 166 211
207 163 207
203 159 203
198 156 198
193 151 193
187 147 187
180 141 180
173 135 173
164 129 164
145 114 145
150 118 150
155 122 155
160 125 160
165 129 165
169 132 169
173 136 173
177 138 177
180 141 180
182 143 182
183 144 183
184 144 184
184 144 184
183 143 183
181 142 181
178 140 178
175 137 175
171 134 171
167 131 167
162 127 162
131 103 131
140 110 140
148 116 148
156 122 156
163 128 163
169 133 169
175 137 175
180 141 180
185 145 185
190 149 190
194 152 194
198 155 198
201 158 201
204 160 204
207 163 207
210 165 210
213 167 213
215 169 215
217 170 217
219 172 219
221 173 221
223 175 223
238 187 238
237 186 237
236 185 236
235 184 235
234 183 234
232 182 232
231 181 231
229 180 229
227 178 227
225 177 225
223 175 223
220 173 220
218 171 218
214 168 214
211 165 211
207 162 207
202 159 202
197 155 197
191 150 191
185 145 185
177 139 177
169 132 169
143 112 143
148 116 148
153 120 153
159 124 159
164 128 164
168 132 168
173 135 173
176 138 176
180 141 180
182 143 182
184 144 184
184 144 184
184 144 184
183 143 183
181 142 181
178 139 178
174 136 174
170 133 170
165 129 165
160 126 160
136 107 136
145 114 145
153 120 153
161 126 161
168 131 168
174 136 174
180 141 180
185 145 185
190 149 190
194 152 194
198 155 198
202 158 202
205 161 205
208 163 208
211 165 211
213 167 213
216 169 216
218 171 218
220 172 220
222 174 222
224 175 224
225 177 225
240 188 240
239 187 239
238 186 238
237 186 237
236 185 236
234 184 234
233 182 233
231 181 231
230 180 230
228 178 228
225 177 225
223 175 223
220 173 220
217 170 217
214 168 214
210 165 210
206 161 206
201 158 201
195 153 195
189 148 189
182 142 182
173 136 173
147 116 147
0 0 0
0 0 0
0 0 0
0 26 0
0 40 0
0 43 0
0 28 0
188 148 188
191 150 191
193 151 193
194 152 194
193 152 193
192 150 192
189 148 189
186 146 186
182 142 182
177 139 177
172 135 172
166 130 166
141 110 141
150 117 150
158 124 158
165 130 165
172 135 172
178 140 178
184 144 184
189 148 189
194 152 194
198 155 198
202 158 202
205 161 205
208 163 208
211 166 211
214 168 214
216 170 216
219 171 219
221 173 221
223 175 223
224 176 224
226 177 226
228 178 228
241 189 241
240 188 240
239 187 239
238 187 238
237 186 237
236 185 236
235 184 235
233 183 233
232 181 232
230 180 230
228 179 228
225 177 225
223 175 223
220 173 220
217 170 217
213 167 213
209 164 209
205 160 205
199 156 199
193 151 193
186 146 186
0 0 0
0 0 0
0 0 0
0 32 0
0 55 0
0 72 0
0 84 0
0 92 0
0 94 0
0 89 0
0 64 0
203 159 203
203 159 203
203 159 203
201 158 201
198 156 198
195 152 195
190 149 190
184 144 184
178 140 178
172 135 172
146 114 146
155 121 155
163 128 163
170 133 170
177 139 177
183 143 183
188 147 188
193 151 193
198 155 198
202 158 202
205 161 205
209 164 209
212 166 212
214 168 214
217 170 217
219 172 219
221 174 221
223 175 223
225 176 225
227 178 227
228 179 228
230 180 230
242 190 242
241 189 241
240 188 240
240 188 240
239 187 239
237 186 237
236 185 236
235 184 235
233 183 233
232 182 232
230 180 230
228 178 228
225 177 225
223 175 223
220 172 220
216 170 216
212 166 212
208 163 208
203 159 203
197 154 197
0 0 0
0 0 0
0 0 0
0 35 0
0 61 0
0 80 0
0 96 0
0 109 0
0 119 0
0 125 0
0 126 0
0 119 0
0 93 0
213 167 213
213 167 213
211 165 211
208 163 208
203 159 203
198 155 198
192 150 192
185 145 185
178 140 178
150 118 150
159 125 159
167 131 167
174 137 174
181 142 181
187 146 187
192 151 192
197 154 197
201 158 201
205 161 205
209 163 209
212 166 212
215 168 215
217 170 217
220 172 220
222 174 222
224 175 224
226 177 226
227 178 227
229 179 229
230 181 230
232 182 232
243 191 243
242 190 242
242 189 242
241 189 241
240 188 240
239 187 239
238 186 238
236 185 236
235 184 235
233 183 233
232 182 232
230 180 230
227 178 227
225 176 225
222 174 222
219 172 219
215 169 215
211 165 211
206 161 206
0 0 0
0 0 0
0 0 0
0 25 0
0 55 0
0 78 0
0 97 0
0 113 0
0 127 0
0 139 0
0 147 0
0 152 0
0 150 0
0 137 0
0 99 0
0 0 73
0 0 80
0 0 74
0 0 43
205 161 205
198 156 198
191 150 191
184 144 184
155 121 155
163 128 163
171 134 171
179 140 179
185 145 185
191 149 191
196 153 196
200 157 200
204 160 204
208 163 208
212 166 212
215 168 215
217 170 217
220 172 220
222 174 222
224 176 224
226 177 226
228 179 228
229 180 229
231 181 231
232 182 232
233 183 233
244 191 244
243 191 243
242 190 242
242 189 242
241 189 241
240 188 240
239 187 239
238 186 238
236 185 236
235 184 235
233 183 233
231 181 231
229 180 229
227 178 227
224 176 224
221 173 221
218 171 218
213 167 213
209 164 209
0 0 0
0 0 0
0 0 0
0 41 0
0 67 0
0 89 0
0 108 0
0 125 0
0 140 0
0 153 0
0 163 0
0 170 0
0 171 0
0 164 0
0 141 0
0 0 130
0 0 138
0 0 139
0 0 130
0 0 109
0 0 50
197 154 197
189 148 189
159 124 159
167 131 167
175 137 175
182 143 182
188 148 188
194 152 194
199 156 199
203 159 203
207 162 207
211 165 211
214 168 214
217 170 217
220 172 220
222 174 222
224 176 224
226 177 226
228 179 228
230 180 230
231 181 231
232 182 232
234 183 234
235 184 235
245 192 245
244 191 244
243 191 243
242 190 242
242 189 242
241 189 241
240 188 240
239 187 239
237 186 237
236 185 236
234 184 234
233 182 233
231 181 231
228 179 228
226 177 226
223 175 223
220 172 220
216 169 216
0 0 0
0 0 0
0 0 0
0 12 0
0 49 0
0 75 0
0 96 0
0 116 0
0 133 0
0 149 0
0 163 0
0 174 0
0 183 0
0 186 0
0 182 0
0 164 0
0 0 168
0 0 177
0 0 180
0 0 174
0 0 160
0 0 134
0 0 80
193 151 193
162 127 162
171 134 171
178 140 178
185 145 185
191 150 191
197 154 197
201 158 201
206 161 206
210 164 210
213 167 213
216 169 216
219 172 219
222 174 222
224 175 224
226 177 226
228 178 228
229 180 229
231 181 231
232 182 232
234 183 234
235 184 235
236 185 236
245 192 245
244 192 244
244 191 244
243 191 243
242 190 242
241 189 241
240 188 240
239 188 239
238 187 238
237 186 237
235 184 235
234 183 234
232 182 232
230 180 230
227 178 227
224 176 224
221 173 221
217 170 217
0 0 0
0 0 0
0 0 0
0 17 0
0 52 0
0 78 0
0 100 0
0 120 0
0 138 0
0 154 0
0 169 0
0 181 0
0 191 0
0 195 0
0 193 0
0 178 0
0 0 195
0 0 206
0 0 210
0 0 206
0 0 195
0 0 174
0 0 140
0 0 56
165 129 165
173 136 173
181 142 181
188 147 188
194 152 194
199 156 199
204 160 204
208 163 208
211 166 211
215 168 215
218 171 218
221 173 221
223 175 223
225 176 225
227 178 227
229 179 229
231 181 231
232 182 232
233 183 233
235 184 235
236 185 236
237 186 237
245 192 245
245 192 245
244 191 244
243 191 243
243 190 243
242 190 242
241 189 241
240 188 240
239 187 239
237 186 237
236 185 236
234 184 234
233 182 233
230 181 230
228 179 228
225 177 225
222 174 222
218 171 218
0 0 0
0 0 0
0 0 0
0 15 0
0 51 0
0 78 0
0 100 0
0 120 0
0 138 0
0 155 0
0 171 0
0 184 0
0 194 0
0 199 0
0 197 0
0 183 0
0 0 215
0 0 227
0 0 232
0 0 230
0 0 220
0 0 201
0 0 172
0 0 124
166 130 166
175 137 175
182 143 182
189 148 189
195 153 195
200 157 200
205 161 205
209 164 209
213 167 213
216 169 216
219 172 219
222 174 222
224 176 224
226 177 226
228 179 228
230 180 230
231 181 231
233 182 233
234 184 234
235 184 235
236 185 236
237 186 237
246 192 246
245 192 245
244 192 244
244 191 244
243 190 243
242 190 242
241 189 241
240 188 240
239 187 239
238 186 238
236 185 236
235 184 235
233 183 233
231 181 231
228 179 228
226 177 226
223 174 223
219 172 219
215 168 215
0 0 0
0 0 0
0 3 0
0 45 0
0 73 0
0 96 0
0 117 0
0 136 0
0 153 0
0 168 0
0 181 0
0 191 0
0 197 0
0 194 0
0 0 211
0 0 228
0 0 240
0 0 246
0 0 245
0 0 236
0 0 219
0 0 192
0 0 152
167 131 167
176 138 176
183 144 183
190 149 190
196 154 196
201 158 201
206 161 206
210 164 210
213 167 213
217 170 217
219 172 219
222 174 222
224 176 224
227 178 227
228 179 228
230 180 230
232 182 232
233 183 233
234 184 234
236 185 236
237 186 237
238 186 238
246 192 246
245 192 245
244 192 244
244 191 244
243 190 243
242 190 242
241 189 241
240 188 240
239 187 239
238 186 238
236 185 236
235 184 235
233 183 233
231 181 231
228 179 228
226 177 226
223 174 223
219 172 219
215 168 215
0 0 0
0 0 0
0 0 0
0 33 0
0 64 0
0 89 0
0 110 0
0 129 0
0 146 0
0 161 0
0 174 0
0 183 0
0 188 0
0 183 0
0 0 217
0 0 234
0 0 247
0 0 253
0 0 252
0 0 244
0 0 228
0 0 203
0 0 166
0 0 101
176 138 176
183 144 183
190 149 190
196 154 196
201 158 201
206 161 206
210 164 210
213 167 213
217 170 217
219 172 219
222 174 222
224 176 224
227 178 227
228 179 228
230 180 230
232 182 232
233 183 233
234 184 234
236 185 236
237 186 237
238 186 238
245 192 245
245 192 245
244 191 244
243 191 243
243 190 243
242 190 242
241 189 241
240 188 240
239 187 239
237 186 237
236 185 236
234 184 234
233 182 233
230 181 230
228 179 228
225 177 225
222 174 222
218 171 218
214 168 214
209 164 209
0 0 0
0 0 0
0 8 0
0 48 0
0 75 0
0 98 0
0 117 0
0 134 0
0 149 0
0 161 0
0 169 0
0 171 0
0 0 195
0 0 217
0 0 234
0 0 246
0 0 253
0 0 253
0 0 245
0 0 230
0 0 205
0 0 170
0 0 111
175 137 175
182 143 182
189 148 189
195 153 195
200 157 200
205 161 205
209 164 209
213 167 213
216 169 216
219 172 219
222 174 222
224 176 224
226 177 226
228 179 228
230 180 230
231 181 231
233 182 233
234 184 234
235 184 235
236 185 236
237 186 237
245 192 245
244 192 244
244 191 244
243 191 243
242 190 242
241 189 241
240 188 240
239 188 239
238 187 238
237 186 237
235 184 235
234 183 234
232 182 232
230 180 230
227 178 227
224 176 224
221 173 221
217 170 217
213 167 213
208 163 208
0 0 0
0 0 0
0 0 0
0 19 0
0 54 0
0 79 0
0 99 0
0 116 0
0 130 0
0 141 0
0 146 0
0 144 0
0 0 189
0 0 211
0 0 228
0 0 240
0 0 246
0 0 246
0 0 239
0 0 224
0 0 200
0 0 165
0 0 106
173 136 173
181 142 181
188 147 188
194 152 194
199 156 199
204 160 204
208 163 208
211 166 211
215 168 215
218 171 218
221 173 221
223 175 223
225 176 225
227 178 227
229 179 229
231 181 231
232 182 232
233 183 233
235 184 235
236 185 236
237 186 237
245 192 245
244 191 244
243 191 243
242 190 242
242 189 242
241 189 241
240 188 240
239 187 239
237 186 237
236 185 236
234 184 234
233 182 233
231 181 231
228 179 228
226 177 226
223 175 223
220 172 220
216 169 216
211 165 211
206 161 206
200 156 200
192 151 192
0 0 0
0 0 0
0 11 0
0 48 0
0 71 0
0 89 0
0 102 0
0 109 0
0 110 0
0 0 153
0 0 178
0 0 199
0 0 216
0 0 227
0 0 233
0 0 233
0 0 226
0 0 211
0 0 188
0 0 152
0 0 86
171 134 171
178 140 178
185 145 185
191 150 191
197 154 197
201 158 201
206 161 206
210 164 210
213 167 213
216 169 216
219 172 219
222 174 222
224 175 224
226 177 226
228 178 228
229 180 229
231 181 231
232 182 232
234 183 234
235 184 235
236 185 236
244 191 244
243 191 243
242 190 242
242 189 242
241 189 241
240 188 240
239 187 239
238 186 238
236 185 236
235 184 235
233 183 233
231 181 231
229 180 229
227 178 227
224 176 224
221 173 221
218 171 218
213 167 213
209 164 209
203 159 203
197 154 197
189 149 189
162 127 162
170 133 170
0 0 0
0 0 0
0 3 0
0 36 0
0 49 0
0 49 0
0 0 108
0 0 138
0 0 162
0 0 183
0 0 198
0 0 209
0 0 215
0 0 214
0 0 207
0 0 192
0 0 168
0 0 130
159 124 159
167 131 167
175 137 175
182 143 182
188 148 188
194 152 194
199 156 199
203 159 203
207 162 207
211 165 211
214 168 214
217 170 217
220 172 220
222 174 222
224 176 224
226 177 226
228 179 228
230 180 230
231 181 231
232 182 232
234 183 234
235 184 235
243 191 243
242 190 242
242 189 242
241 189 241
240 188 240
239 187 239
238 186 238
236 185 236
235 184 235
233 183 233
232 182 232
230 180 230
227 178 227
225 176 225
222 174 222
219 172 219
215 169 215
211 165 211
206 161 206
200 157 200
194 152 194
186 146 186
159 125 159
166 130 166
174 136 174
181 142 181
189 148 189
0 0 0
0 0 0
0 0 45
0 0 86
0 0 117
0 0 141
0 0 161
0 0 176
0 0 186
0 0 191
0 0 190
0 0 183
0 0 167
0 0 141
0 0 93
155 121 155
163 128 163
171 134 171
179 140 179
185 145 185
191 149 191
196 153 196
200 157 200
204 160 204
208 163 208
212 166 212
215 168 215
217 170 217
220 172 220
222 174 222
224 176 224
226 177 226
228 179 228
229 180 229
231 181 231
232 182 232
233 183 233
242 190 242
241 189 241
240 188 240
240 188 240
239 187 239
237 186 237
236 185 236
235 184 235
233 183 233
232 182 232
230 180 230
228 178 228
225 177 225
223 175 223
220 172 220
216 170 216
212 166 212
208 163 208
203 159 203
197 154 197
190 149 190
182 143 182
156 122 156
162 127 162
169 132 169
176 138 176
183 143 183
189 148 189
0 0 0
0 0 0
0 0 54
0 0 89
0 0 114
0 0 134
0 0 149
0 0 158
0 0 163
0 0 161
0 0 151
0 0 133
0 0 100
178 140 178
150 118 150
159 125 159
167 131 167
174 137 174
181 142 181
187 146 187
192 151 192
197 154 197
201 158 201
205 161 205
209 163 209
212 166 212
215 168 215
217 170 217
220 172 220
222 174 222
224 175 224
226 177 226
227 178 227
229 179 229
230 181 230
232 182 232
241 189 241
240 188 240
239 187 239
238 187 238
237 186 237
236 185 236
235 184 235
233 183 233
232 181 232
230 180 230
228 179 228
225 177 225
223 175 223
220 173 220
217 170 217
213 167 213
209 164 209
205 160 205
199 156 199
193 151 193
186 146 186
178 139 178
152 119 152
158 124 158
164 129 164
170 133 170
176 138 176
182 143 182
188 147 188
0 0 0
0 0 0
0 0 47
0 0 78
0 0 100
0 0 115
0 0 124
0 0 127
0 0 123
0 0 110
0 0 83
178 140 178
172 135 172
146 114 146
155 121 155
163 128 163
170 133 170
177 139 177
183 143 183
188 147 188
193 151 193
198 155 198
202 158 202
205 161 205
209 164 209
212 166 212
214 168 214
217 170 217
219 172 219
221 174 221
223 175 223
225 176 225
227 178 227
228 179 228
230 180 230
240 188 240
239 187 239
238 186 238
237 186 237
236 185 236
234 184 234
233 182 233
231 181 231
230 180 230
228 178 228
225 177 225
223 175 223
220 173 220
217 170 217
214 168 214
210 165 210
206 161 206
201 158 201
195 153 195
189 148 189
182 142 182
173 136 173
147 116 147
153 120 153
159 124 159
164 129 164
170 133 170
175 137 175
180 141 180
185 145 185
188 148 188
0 0 0
0 0 10
0 0 48
0 0 67
0 0 76
0 0 76
0 0 66
182 142 182
177 139 177
172 135 172
166 130 166
141 110 141
150 117 150
158 124 158
165 130 165
172 135 172
178 140 178
184 144 184
189 148 189
194 152 194
198 155 198
202 158 202
205 161 205
208 163 208
211 166 211
214 168 214
216 170 216
219 171 219
221 173 221
223 175 223
224 176 224
226 177 226
228 178 228
238 187 238
237 186 237
236 185 236
235 184 235
234 183 234
232 182 232
231 181 231
229 180 229
227 178 227
225 177 225
223 175 223
220 173 220
218 171 218
214 168 214
211 165 211
207 162 207
202 159 202
197 155 197
191 150 191
185 145 185
177 139 177
169 132 169
143 112 143
148 116 148
153 120 153
159 124 159
164 128 164
168 132 168
173 135 173
176 138 176
180 141 180
182 143 182
184 144 184
184 144 184
184 144 184
183 143 183
181 142 181
178 139 178
174 136 174
170 133 170
165 129 165
160 126 160
136 107 136
145 114 145
153 120 153
161 126 161
168 131 168
174 136 174
180 141 180
185 145 185
190 149 190
194 152 194
198 155 198
202 158 202
205 161 205
208 163 208
211 165 211
213 167 213
216 169 216
218 171 218
220 172 220
222 174 222
224 175 224
225 177 225
237 186 237
236 185 236
234 184 234
233 183 233
232 182 232
230 181 230
229 179 229
227 178 227
225 176 225
223 175 223
220 173 220
218 171 218
215 168 215
211 166 211
207 163 207
203 159 203
198 156 198
193 151 193
187 147 187
180 141 180
173 135 173
164 129 164
145 114 145
150 118 150
155 122 155
160 125 160
165 129 165
169 132 169
173 136 173
177 138 177
180 141 180
182 143 182
183 144 183
184 144 184
184 144 184
183 143 183
181 142 181
178 140 178
175 137 175
171 134 171
167 131 167
162 127 162
131 103 131
140 110 140
148 116 148
156 122 156
163 128 163
169 133 169
175 137 175
180 141 180
185 145 185
190 149 190
194 152 194
198 155 198
201 158 201
204 160 204
207 163 207
210 165 210
213 167 213
215 169 215
217 170 217
219 172 219
221 173 221
223 175 223
235 184 235
234 183 234
233 182 233
231 181 231
230 180 230
228 179 228
226 178 226
225 176 225
222 174 222
220 172 220
217 170 217
215 168 215
211 166 211
208 163 208
204 160 204
199 156 199
194 152 194
189 148 189
183 143 183
176 138 176
168 132 168
149 117 149
154 120 154
158 124 158
163 128 163
168 132 168
173 135 173
177 139 177
181 142 181
184 144 184
187 147 187
190 149 190
191 150 191
192 150 192
192 150 192
191 150 191
189 148 189
187 146 187
184 144 184
180 141 180
176 138 176
172 135 172
167 131 167
135 106 135
143 112 143
151 118 151
158 124 158
164 129 164
170 133 170
176 138 176
181 142 181
186 145 186
190 149 190
194 152 194
197 155 197
201 157 201
204 160 204
207 162 207
209 164 209
212 166 212
214 168 214
216 169 216
218 171 218
220 172 220
233 183 233
232 182 232
231 181 231
229 180 229
228 178 228
226 177 226
224 176 224
222 174 222
220 172 220
217 170 217
214 168 214
211 166 211
208 163 208
204 160 204
200 157 200
196 153 196
190 149 190
185 145 185
178 140 178
171 134 171
151 119 151
156 122 156
161 126 161
166 130 166
170 133 170
175 137 175
179 141 179
184 144 184
188 147 188
191 150 191
194 152 194
196 154 196
198 155 198
198 156 198
199 156 199
198 155 198
196 154 196
194 152 194
191 150 191
188 147 188
184 144 184
180 141 180
176 138 176
171 134 171
139 109 139
146 114 146
153 120 153
160 125 160
166 130 166
171 134 171
176 138 176
181 142 181
186 145 186
190 149 190
193 152 193
197 154 197
200 157 200
203 159 203
206 161 206
209 163 209
211 165 211
213 167 213
215 169 215
217 170 217
231 181 231
230 180 230
229 179 229
227 178 227
225 177 225
224 175 224
222 174 222
219 172 219
217 170 217
214 168 214
211 166 211
208 163 208
205 160 205
201 157 201
196 154 196
192 150 192
186 146 186
180 141 180
174 136 174
153 120 153
158 124 158
163 128 163
167 131 167
172 135 172
177 138 177
181 142 181
186 145 186
190 149 190
193 152 193
197 154 197
199 156 199
202 158 202
203 159 203
204 160 204
204 160 204
204 160 204
203 159 203
201 157 201
198 155 198
195 153 195
192 150 192
188 147 188
183 144 183
179 140 179
174 137 174
141 111 141
148 116 148
155 121 155
161 126 161
167 131 167
172 135 172
177 139 177
181 142 181
186 145 186
189 148 189
193 151 193
196 154 196
200 156 200
202 159 202
205 161 205
208 163 208
210 165 210
212 166 212
214 168 214
229 180 229
228 179 228
226 178 226
225 176 225
223 175 223
221 173 221
219 172 219
217 170 217
214 168 214
211 166 211
208 163 208
205 161 205
201 158 201
197 154 197
193 151 193
188 147 188
182 143 182
176 138 176
155 122 155
160 125 160
164 129 164
169 132 169
173 136 173
178 139 178
182 143 182
187 146 187
191 150 191
195 153 195
198 156 198
202 158 202
204 160 204
207 162 207
208 163 208
209 164 209
209 164 209
209 164 209
208 163 208
206 162 206
204 160 204
201 158 201
198 155 198
194 152 194
190 149 190
186 146 186
182 142 182
177 139 177
144 113 144
150 118 150
156 123 156
162 127 162
167 131 167
172 135 172
177 139 177
181 142 181
185 145 185
189 148 189
193 151 193
196 153 196
199 156 199
202 158 202
204 160 204
207 162 207
209 164 209
211 166 211
227 178 227
226 177 226
224 176 224
222 174 222
221 173 221
218 171 218
216 169 216
214 168 214
211 165 211
208 163 208
205 161 205
201 158 201
198 155 198
193 152 193
189 148 189
184 144 184
178 140 178
157 123 157
161 126 161
165 130 165
170 133 170
174 137 174
179 140 179
183 144 183
188 147 188
192 150 192
196 153 196
200 156 200
203 159 203
206 162 206
209 164 209
211 165 211
212 166 212
213 167 213
214 168 214
214 167 214
213 167 213
211 165 211
209 164 209
207 162 207
204 160 204
200 157 200
196 154 196
192 151 192
188 148 188
184 144 184
179 141 179
146 114 146
152 119 152
158 124 158
163 128 163
168 132 168
173 135 173
177 139 177
181 142 181
185 145 185
189 148 189
192 151 192
195 153 195
198 155 198
201 157 201
203 159 203
206 161 206
208 163 208
225 177 225
224 175 224
222 174 222
220 172 220
218 171 218
216 169 216
213 167 213
211 165 211
208 163 208
205 161 205
202 158 202
198 155 198
194 152 194
190 149 190
185 145 185
180 141 180
158 124 158
162 127 162
166 130 166
171 134 171
175 137 175
179 140 179
184 144 184
188 147 188
192 151 192
196 154 196
200 157 200
204 160 204
207 162 207
210 165 210
212 167 212
215 168 215
216 169 216
217 170 217
218 171 218
217 170 217
217 170 217
215 169 215
214 167 214
211 166 211
208 163 208
205 161 205
202 158 202
198 155 198
194 152 194
190 149 190
186 146 186
181 142 181
147 116 147
153 120 153
159 124 159
164 128 164
169 132 169
173 136 173
177 139 177
181 142 181
185 145 185
188 148 188
192 150 192
195 152 195
197 155 197
200 157 200
203 159 203
205 161 205
223 175 223
221 174 221
220 172 220
218 171 218
215 169 215
213 167 213
211 165 211
208 163 208
205 161 205
202 158 202
198 155 198
194 152 194
190 149 190
186 146 186
181 142 181
159 125 159
163 128 163
167 131 167
171 134 171
175 137 175
180 141 180
184 144 184
188 147 188
192 151 192
196 154 196
200 157 200
204 160 204
207 162 207
210 165 210
213 167 213
216 169 216
218 171 218
219 172 219
220 173 220
221 173 221
221 173 221
220 173 220
219 172 219
217 170 217
215 169 215
213 167 213
210 165 210
207 162 207
203 159 203
199 156 199
196 153 196
191 150 191
187 147 187
183 144 183
149 117 149
154 121 154
160 125 160
164 129 164
169 132 169
173 136 173
177 139 177
181 142 181
185 145 185
188 147 188
191 150 191
194 152 194
197 154 197
199 156 199
202 158 202
221 173 221
219 172 219
217 170 217
215 169 215
213 167 213
210 165 210
208 163 208
205 161 205
202 158 202
199 156 199
195 153 195
191 150 191
187 146 187
182 143 182
160 125 160
164 128 164
168 131 168
172 134 172
176 138 176
180 141 180
184 144 184
188 147 188
192 150 192
196 154 196
200 157 200
204 160 204
207 162 207
211 165 211
214 167 214
216 170 216
219 171 219
221 173 221
222 174 222
223 175 223
224 175 224
224 175 224
223 175 223
222 174 222
221 173 221
219 172 219
217 170 217
214 168 214
211 165 211
208 163 208
204 160 204
201 157 201
197 154 197
193 151 193
189 148 189
185 145 185
150 118 150
155 122 155
160 126 160
165 129 165
169 133 169
173 136 173
177 139 177
181 142 181
184 144 184
187 147 187
190 149 190
193 151 193
196 154 196
199 156 199
219 171 219
217 170 217
215 168 215
212 166 212
210 165 210
208 163 208
205 161 205
202 158 202
199 156 199
195 153 195
192 150 192
188 147 188
183 144 183
161 126 161
164 129 164
168 132 168
172 135 172
176 138 176
180 141 180
184 144 184
188 147 188
192 150 192
196 153 196
199 156 199
203 159 203
207 162 207
210 165 210
213 167 213
216 170 216
219 172 219
221 173 221
223 175 223
225 176 225
226 177 226
226 177 226
226 177 226
226 177 226
225 177 225
224 176 224
222 174 222
220 173 220
218 171 218
215 168 215
212 166 212
209 163 209
205 161 205
201 158 201
198 155 198
194 152 194
190 149 190
186 146 186
151 119 151
156 122 156
161 126 161
165 130 165
169 133 169
173 136 173
177 139 177
181 141 181
184 144 184
187 146 187
190 149 190
193 151 193
195 153 195
216 169 216
214 168 214
212 166 212
210 164 210
207 163 207
205 160 205
202 158 202
199 156 199
196 153 196
192 150 192
188 147 188
184 144 184
161 126 161
165 129 165
168 132 168
172 135 172
176 138 176
180 141 180
184 144 184
187 147 187
191 150 191
195 153 195
199 156 199
203 159 203
206 162 206
210 164 210
213 167 213
216 169 216
219 172 219
221 173 221
224 175 224
225 177 225
227 178 227
228 179 228
229 179 229
229 179 229
228 179 228
228 179 228
227 178 227
225 176 225
223 175 223
221 173 221
218 171 218
216 169 216
212 166 212
209 164 209
206 161 206
202 158 202
198 155 198
195 152 195
191 149 191
187 146 187
152 119 152
157 123 157
161 127 161
166 130 166
170 133 170
173 136 173
177 139 177
180 141 180
183 144 183
186 146 186
189 148 189
192 150 192
214 168 214
212 166 212
209 164 209
207 162 207
205 160 205
202 158 202
199 156 199
196 153 196
192 151 192
189 148 189
185 145 185
162 127 162
165 129 165
169 132 169
172 135 172
176 138 176
180 141 180
183 144 183
187 147 187
191 150 191
195 153 195
198 155 198
202 158 202
206 161 206
209 164 209
212 166 212
215 169 215
218 171 218
221 173 221
223 175 223
226 177 226
227 178 227
229 179 229
230 180 230
230 181 230
231 181 231
231 181 231
230 180 230
229 179 229
228 178 228
226 177 226
224 175 224
221 174 221
219 172 219
216 169 216
213 167 213
210 164 210
206 162 206
203 159 203
199 156 199
195 153 195
191 150 191
188 147 188
153 120 153
158 124 158
162 127 162
166 130 166
170 133 170
173 136 173
177 138 177
180 141 180
183 143 183
186 146 186
189 148 189
211 166 211
209 164 209
207 162 207
204 160 204
202 158 202
199 156 199
196 154 196
193 151 193
189 148 189
185 145 185
162 127 162
166 130 166
169 132 169
172 135 172
176 138 176
179 141 179
183 143 183
187 146 187
190 149 190
194 152 194
198 155 198
201 158 201
205 160 205
208 163 208
211 166 211
215 168 215
218 171 218
220 173 220
223 175 223
225 177 225
227 178 227
229 180 229
231 181 231
232 182 232
232 182 232
233 182 233
232 182 232
232 182 232
231 181 231
230 180 230
228 179 228
226 177 226
224 176 224
222 174 222
219 172 219
216 169 216
213 167 213
210 164 210
206 162 206
203 159 203
199 156 199
196 153 196
192 151 192
189 148 189
154 121 154
158 124 158
162 127 162
166 130 166
170 133 170
173 136 173
177 138 177
180 141 180
183 143 183
185 145 185
209 164 209
207 162 207
204 160 204
202 158 202
199 156 199
196 154 196
193 151 193
190 149 190
186 146 186
163 127 163
166 130 166
169 133 169
172 135 172
176 138 176
179 141 179
183 143 183
186 146 186
190 149 190
193 152 193
197 154 197
200 157 200
204 160 204
207 162 207
211 165 211
214 168 214
217 170 217
220 172 220
222 174 222
225 176 225
227 178 227
229 180 229
231 181 231
232 182 232
233 183 233
234 183 234
234 184 234
234 183 234
234 183 234
233 183 233
232 182 232
230 181 230
229 179 229
227 178 227
224 176 224
222 174 222
219 172 219
216 170 216
213 167 213
210 165 210
207 162 207
203 159 203
200 157 200
196 154 196
193 151 193
189 148 189
155 121 155
159 124 159
163 127 163
166 130 166
170 133 170
173 136 173
176 138 176
179 141 179
182 143 182
