P3
25 25 255

0 0 0
0 0 0
0 0 0
0 0 0
0 0 0
0 0 0
0 0 0
0 0 0
0 0 0
0 0 0
0 0 0
0 0 0
0 0 0
0 0 0
0 0 0
0 0 0
0 0 0
0 0 0
0 0 0
0 0 0
0 0 0
0 0 0
0 0 0
0 0 0
0 0 0
0 165 0
0 0 0
0 0 0
0 0 0
0 0 0
0 0 0
0 0 0
0 0 0
0 0 0
0 0 0
0 0 0
1 0 1
1 0 1
1 0 1
0 0 0
0 0 0
0 0 0
0 0 0
0 0 0
0 0 0
0 0 0
0 0 0
0 0 0
0 0 0
181 0 0
0 164 0
0 187 0
0 0 0
0 0 0
0 0 0
0 0 0
1 0 1
1 1 1
1 1 1
1 1 1
1 1 1
1 1 1
1 1 1
1 1 1
1 1 1
1 1 1
1 1 1
1 1 1
1 0 1
0 0 0
0 0 0
0 0 0
0 0 0
206 0 0
180 0 0
0 162 0
0 186 0
0 214 0
0 0 0
0 0 0
0 0 0
1 1 1
1 1 1
1 1 1
2 1 2
3 2 3
6 5 6
29 26 29
6 5 6
3 2 3
2 1 2
1 1 1
1 1 1
1 1 1
0 0 0
0 0 0
0 0 0
235 0 0
205 0 0
179 0 0
0 161 0
0 184 0
0 211 0
0 228 0
0 0 0
0 0 0
0 0 0
0 0 0
1 0 1
1 1 1
1 1 1
1 1 1
1 1 1
1 1 1
1 1 1
1 1 1
1 0 1
0 0 0
0 0 0
0 0 0
232 0 0
253 0 0
232 0 0
202 0 0
177 0 0
0 158 0
0 180 0
0 207 0
0 225 0
0 205 0
182 164 182
195 176 195
209 188 209
222 201 222
235 212 235
245 221 245
252 227 252
254 229 254
252 227 252
245 221 245
235 212 235
222 201 222
209 188 209
195 176 195
182 164 182
231 0 0
249 0 0
227 0 0
198 0 0
174 0 0
0 156 0
0 176 0
0 201 0
0 218 0
0 201 0
181 163 181
194 175 194
207 187 207
221 199 221
233 210 233
243 219 243
249 225 249
252 227 252
249 225 249
243 219 243
233 210 233
221 199 221
207 187 207
194 175 194
181 163 181
227 0 0
242 0 0
221 0 0
194 0 0
171 0 0
0 152 0
0 172 0
0 195 0
0 211 0
0 196 0
179 161 179
191 172 191
203 183 203
216 194 216
227 205 227
236 213 236
242 219 242
244 220 244
242 219 242
236 213 236
227 205 227
216 194 216
203 183 203
191 172 191
179 161 179
221 0 0
233 0 0
214 0 0
189 0 0
168 0 0
0 149 0
0 167 0
0 188 0
0 201 0
0 188 0
174 157 174
186 167 186
197 178 197
208 188 208
218 197 218
227 204 227
232 209 232
234 211 234
232 209 232
227 204 227
218 197 218
208 188 208
197 178 197
186 167 186
174 157 174
212 0 0
223 0 0
206 0 0
183 0 0
164 0 0
0 146 0
0 162 0
0 180 0
0 192 0
0 180 0
169 152 169
179 162 179
189 171 189
199 180 199
208 188 208
215 194 215
220 198 220
221 200 221
220 198 220
215 194 215
208 188 208
199 180 199
189 171 189
179 162 179
169 152 169
203 0 0
213 0 0
198 0 0
178 0 0
160 0 0
0 142 0
0 157 0
0 172 0
0 182 0
0 171 0
163 147 163
172 155 172
181 163 181
189 171 189
197 177 197
203 183 203
207 186 207
208 187 208
207 186 207
203 183 203
197 177 197
189 171 189
181 163 181
172 155 172
163 147 163
193 0 0
202 0 0
190 0 0
172 0 0
156 0 0
0 138 0
0 151 0
0 165 0
0 172 0
0 163 0
156 141 156
164 148 164
172 155 172
179 161 179
185 167 185
190 171 190
193 174 193
194 175 194
193 174 193
190 171 190
185 167 185
179 161 179
172 155 172
164 148 164
156 141 156
183 0 0
191 0 0
181 0 0
166 0 0
152 0 0
0 134 0
0 146 0
0 157 0
0 163 0
0 154 0
149 134 149
156 141 156
162 146 162
169 152 169
174 157 174
178 160 178
180 163 180
181 164 181
180 163 180
178 160 178
174 157 174
169 152 169
162 146 162
156 141 156
149 134 149
173 0 0
181 0 0
173 0 0
160 0 0
147 0 0
0 130 0
0 141 0
0 150 0
0 154 0
0 145 0
142 128 142
148 133 148
154 138 154
159 143 159
163 147 163
166 150 166
168 152 168
169 153 169
168 152 168
166 150 166
163 147 163
159 143 159
154 138 154
148 133 148
142 128 142
163 0 0
171 0 0
165 0 0
154 0 0
143 0 0
0 127 0
0 135 0
0 143 0
0 146 0
0 138 0
135 122 135
140 126 140
145 131 145
149 135 149
153 138 153
156 140 156
157 142 157
158 142 158
157 142 157
156 140 156
153 138 153
149 135 149
145 131 145
140 126 140
135 122 135
154 0 0
162 0 0
158 0 0
149 0 0
139 0 0
0 123 0
0 130 0
0 137 0
0 138 0
0 130 0
129 116 129
133 120 133
137 123 137
141 127 141
144 129 144
146 131 146
147 133 147
148 133 148
147 133 147
146 131 146
144 129 144
141 127 141
137 123 137
133 120 133
129 116 129
146 0 0
153 0 0
151 0 0
143 0 0
135 0 0
0 119 0
0 126 0
0 131 0
0 131 0
0 123 0
122 110 122
126 114 126
129 117 129
133 119 133
135 122 135
137 123 137
138 124 138
138 125 138
138 124 138
137 123 137
135 122 135
133 119 133
129 117 129
126 114 126
122 110 122
138 0 0
146 0 0
144 0 0
138 0 0
131 0 0
0 116 0
0 121 0
0 125 0
0 124 0
0 117 0
116 105 116
120 108 120
123 110 123
125 113 125
127 115 127
129 116 129
130 117 130
130 117 130
130 117 130
129 116 129
127 115 127
125 113 125
123 110 123
120 108 120
116 105 116
131 0 0
138 0 0
138 0 0
133 0 0
127 0 0
0 112 0
0 117 0
0 120 0
0 118 0
0 111 0
111 100 111
114 102 114
116 105 116
118 107 118
120 108 120
121 109 121
122 110 122
122 110 122
122 110 122
121 109 121
120 108 120
118 107 118
116 105 116
114 102 114
110 0 0
125 0 0
132 0 0
132 0 0
129 0 0
124 0 0
0 109 0
0 113 0
0 114 0
0 113 0
0 105 0
106 95 106
108 97 108
110 99 110
112 101 112
114 102 114
115 103 115
115 104 115
116 104 116
115 104 115
115 103 115
114 102 114
112 101 112
110 99 110
108 97 108
105 0 0
118 0 0
125 0 0
127 0 0
124 0 0
120 0 0
0 106 0
0 109 0
0 110 0
0 108 0
224 202 224
229 207 229
234 211 234
238 215 238
242 218 242
245 221 245
247 223 247
249 224 249
249 225 249
249 224 249
247 223 247
245 221 245
242 218 242
238 215 238
234 211 234
229 207 229
113 0 0
120 0 0
121 0 0
120 0 0
117 0 0
0 103 0
0 105 0
0 105 0
228 205 228
233 210 233
237 214 237
241 218 241
245 221 245
248 224 248
251 226 251
253 228 253
254 229 254
254 229 254
254 229 254
253 228 253
251 226 251
248 224 248
245 221 245
241 218 241
237 214 237
233 210 233
228 205 228
117 0 0
116 0 0
113 0 0
0 100 0
0 101 0
223 201 223
227 205 227
231 209 231
235 212 235
238 215 238
241 217 241
244 220 244
246 221 246
247 223 247
248 224 248
248 224 248
248 224 248
247 223 247
246 221 246
244 220 244
241 217 241
238 215 238
235 212 235
231 209 231
227 205 227
223 201 223
112 0 0
110 0 0
0 97 0
215 194 215
219 197 219
222 200 222
225 203 225
228 205 228
230 208 230
232 210 232
234 211 234
236 212 236
237 213 237
237 214 237
237 214 237
237 214 237
237 213 237
236 212 236
234 211 234
232 210 232
230 208 230
228 205 228
225 203 225
222 200 222
219 197 219
215 194 215
107 0 0
207 186 207
209 189 209
212 191 212
214 193 214
217 195 217
219 197 219
221 199 221
222 200 222
224 202 224
225 203 225
225 203 225
226 204 226
226 204 226
226 204 226
225 203 225
225 203 225
224 202 224
222 200 222
221 199 221
219 197 219
217 195 217
214 193 214
212 191 212
209 189 209
207 186 207
